<?xml version="1.0" encoding="iso-8859-1"?>
<!-- Generator: Adobe Illustrator 25.0.1, SVG Export Plug-In . SVG Version: 6.00 Build 0)  -->
<svg version="1.1" id="step_02" xmlns="http://www.w3.org/2000/svg" xmlns:xlink="http://www.w3.org/1999/xlink" x="0px" y="0px"
	 viewBox="0 0 700 700" style="enable-background:new 0 0 700 700;" xml:space="preserve">
<linearGradient id="SVGID_1_" gradientUnits="userSpaceOnUse" x1="231.024826" y1="348.4106445" x2="231.024826" y2="193.0752411" gradientTransform="matrix(1 0 0 -1 0 551.281189)">
	<stop  offset="0.0003307" style="stop-color:#F0F0F0"/>
	<stop  offset="0.9978712" style="stop-color:#EEEEEE"/>
</linearGradient>
<polygon style="fill:url(#SVGID_1_);" points="262.1652527,202.8705597 199.8843994,233.9866638 199.8843994,358.2059631 
	262.1652527,327.0898743 "/>
<linearGradient id="SVGID_2_" gradientUnits="userSpaceOnUse" x1="302.3377686" y1="384.0893555" x2="302.3377686" y2="228.7539368" gradientTransform="matrix(1 0 0 -1 0 551.281189)">
	<stop  offset="0" style="stop-color:#BFE6DA"/>
	<stop  offset="0.9978712" style="stop-color:#9DD3C0"/>
</linearGradient>
<polygon style="fill:url(#SVGID_2_);" points="333.4781799,167.191864 271.1973267,198.3079529 271.1973267,322.5272827 
	333.4781799,291.4111633 "/>
<linearGradient id="SVGID_3_" gradientUnits="userSpaceOnUse" x1="373.6506958" y1="419.7680664" x2="373.6506958" y2="264.4326477" gradientTransform="matrix(1 0 0 -1 0 551.281189)">
	<stop  offset="0.0003307" style="stop-color:#EDCD9C"/>
	<stop  offset="0.9982226" style="stop-color:#DBB075"/>
</linearGradient>
<polygon style="fill:url(#SVGID_3_);" points="404.7911072,131.5131531 342.5102539,162.6292572 342.5102539,286.8485718 
	404.7911072,255.7324677 "/>
<linearGradient id="SVGID_4_" gradientUnits="userSpaceOnUse" x1="231.024826" y1="213.4785919" x2="231.024826" y2="58.1431847" gradientTransform="matrix(1 0 0 -1 0 551.281189)">
	<stop  offset="0" style="stop-color:#DCE5ED"/>
	<stop  offset="0.9982226" style="stop-color:#BBC3CA"/>
</linearGradient>
<polygon style="fill:url(#SVGID_4_);" points="262.1652527,337.8026123 199.8843994,368.9187012 199.8843994,493.138031 
	262.1652527,462.0219116 "/>
<linearGradient id="SVGID_5_" gradientUnits="userSpaceOnUse" x1="302.3377686" y1="249.1573029" x2="302.3377686" y2="93.8218842" gradientTransform="matrix(1 0 0 -1 0 551.281189)">
	<stop  offset="0.0003307" style="stop-color:#FFDC69"/>
	<stop  offset="0.9982226" style="stop-color:#DDB74E"/>
</linearGradient>
<polygon style="fill:url(#SVGID_5_);" points="333.4781799,302.1239014 271.1973267,333.2400208 271.1973267,457.4593201 
	333.4781799,426.3432312 "/>
<linearGradient id="SVGID_6_" gradientUnits="userSpaceOnUse" x1="373.6506958" y1="284.8359985" x2="373.6506958" y2="129.5005798" gradientTransform="matrix(1 0 0 -1 0 551.281189)">
	<stop  offset="0" style="stop-color:#D9E9FF"/>
	<stop  offset="0.9992766" style="stop-color:#BCCEEC"/>
</linearGradient>
<polygon style="fill:url(#SVGID_6_);" points="404.7911072,266.4452209 342.5102539,297.5613098 342.5102539,421.7806396 
	404.7911072,390.6645203 "/>
<linearGradient id="SVGID_7_" gradientUnits="userSpaceOnUse" x1="241.8054504" y1="587.3327026" x2="474.5044861" y2="587.3327026">
	<stop  offset="0" style="stop-color:#FFFFFF"/>
	<stop  offset="1" style="stop-color:#28AAFF"/>
</linearGradient>
<polygon style="opacity:0.5;fill:url(#SVGID_7_);" points="411.9640808,599.6548462 241.8054504,600 241.8054504,574.6653442 
	465.8777771,574.7503662 474.5044861,584.2874756 366.781189,585.614624 410.79953,592.9141846 "/>
<path style="fill:#4C4E6E;" d="M477.2696838,579.2324219c-0.0599976-1.3695679-1.2420044-2.9335938-2.4772034-3.2984009
	l-16.4423828-5.0288086c-0.8695984-0.2575684-1.8028259,0.1096191-2.2640076,0.8904419
	c-0.5559998,0.9403687-0.952301,2.7099609-0.5493164,3.0355835c0.4030151,0.3256226,13.0617065,8.637207,13.0617065,8.637207
	c3.9356079,1.3743896,8.8992004,1.6156006,8.8992004,0L477.2696838,579.2324219z"/>
<path style="fill:#4C4E6E;" d="M411.0244751,599.6680298l-21.0375977-5.4276123
	c-1.0579834-0.2731934-1.694397-1.3519897-1.4212036-2.4099731c0.2264099-0.8779907,1.020813-1.489624,1.9276428-1.484375
	l22.4023743,0.1367798c1.2883911,0.0075684,2.225647,1.2252197,1.9039917,2.4724121l-1.3652039,5.2911987
	C413.1616821,599.3044434,412.082489,599.9408569,411.0244751,599.6680298z"/>
<path style="fill:#37384F;" d="M445.0948792,483.1600342l26.1307983,95.0903931
	c0.8676453,2.871582,6.0400085,3.4224243,5.9904175,0.4700317c-1.2704163-41.6660156,1.8375854-81.5100098-9.0667725-106.5808105
	L445.0948792,483.1600342z"/>
<path style="fill:#37384F;" d="M468.0436707,474.5952454c4.1516113-29.6271973,9.172821-64.2359924,4.5488281-90.8063965
	l-36.2116089,2.8571777l8.7160034,95.8588257l2.0708008,6.8263855L468.0436707,474.5952454z"/>
<path style="fill:#4C4E6E;" d="M404.6528931,479.6256409l4.7547913,110.5444031
	c0.2243958,2.9912109,5.1543884,4.6508179,5.7460022,1.7579956c7.7972107-40.9500122,19.6019897-91.2211914,14.3952026-118.0599976
	L404.6528931,479.6256409z"/>
<path style="fill:#4C4E6E;" d="M428.9133301,476.2420349c12.530365-26.0903931,26.4967651-58.1359863,24.0063477-86.4795837
	l-35.5583496-6.7008057l-12.5644531,95.924408l0.540802,7.1131897L428.9133301,476.2420349z"/>
<path style="fill:#0983E2;" d="M419.5388794,356.178833l-3.2859802,35.3435974
	c6.0884399,12.9904175,55.0487976,4.6724243,56.3395996-7.7335815l-5.4671631-44.6759949L419.5388794,356.178833z"/>
<path style="fill:#0983E2;" d="M467.9700928,346.0152283c4.9054565-13.9428101,12.750061-44.9854126,13.7161865-61.6783752
	c0.5628967-9.7261963-0.5458679-11.1639709-7.9486694-11.4911194c-17.0698853-0.754364-47.3209534,9.9050293-63.6599121,23.0135193
	l9.4611816,60.3195801L467.9700928,346.0152283z"/>
<path style="fill:#0983E2;" d="M417.2695618,257.3019409c-1.6378174,1.8323669-3.6505432,8.4614258-0.8298645,10.1200867
	c2.8206482,1.6586914,49.9978943,28.9962158,54.0832214,29.5296021c4.0853271,0.5333557,17.510498-20.4002075,7.6313171-23.5575562
	c-9.8791504-3.1573486-52.0658875-17.1626587-54.0697632-17.8716278
	C422.0806274,254.8134613,418.9074097,255.4695587,417.2695618,257.3019409z"/>
<path style="fill:#0983E2;" d="M424.0844727,255.5224457c-3.0489197-3.0218506-38.2751465-50.3604126-38.2751465-50.3604126
	l-4.6764526,2.9196014c1.9517212,11.1534729,14.977478,37.0592346,27.6011353,51.8207703
	c2.6200867,3.0637817,4.5467224,5.6247864,7.7056885,7.5196228
	C419.7580566,269.4125061,427.7211609,259.1268311,424.0844727,255.5224457z"/>
<path style="fill:#FCDBC9;" d="M381.1328735,208.0816345l-1.5955505-1.9915924
	c-2.6292419-1.6988068-3.5948486-5.0820007-2.2580261-7.9123993l1.6040039-3.3968048l-4.2548218-7.8336029l0.9936218-2.1039886
	l10.7995911,12.8055878l0.0556335,8.3919983L381.1328735,208.0816345z"/>
<path style="fill:#1799FF;" d="M389.7117004,352.9104309c2.6178284,3.8751831,9.696167,4.7599792,11.9081421,1.4419861
	c4.7911377-7.186676,15.8037415-25.5458679,22.4646301-39.8831787c1.2574158-7.0344238-0.8494568-19.0007935-9.0827332-19.499115
	c-1.447113-0.0875854-4.0975342,0.12854-4.9240417,0.8891296c-0.8265381,0.7605896-2.0509644,4.2566223-3.2597046,7.1753235
	c-5.4260864,13.1020203-16.8985291,41.8544922-17.253418,43.3547363
	C389.2096558,347.8895569,388.3469849,350.8902893,389.7117004,352.9104309z"/>
<path style="fill:#1799FF;" d="M398.0804749,341.5080261c-3.2071533-4.8514099-35.0743713-52.6391907-35.0743713-52.6391907
	l-4.8487854,2.6231995c1.5160217,13.5892029,27.1669312,56.3266602,31.5543823,61.418396
	C394.0991211,358.0021973,401.2876587,346.3594666,398.0804749,341.5080261z"/>
<path style="fill:#FCDBC9;" d="M358.1573181,291.4920349l-0.8860168-11.8807983l-3.0128174-9.1167908l3.9456177,0.3811951
	c2.3087769,0.2228088,4.3139954,1.6828003,5.2347717,3.8115845l1.6476135,3.8092041l-1.6027832,11.0895996L358.1573181,291.4920349z
	"/>
<path style="fill:#FCDBC9;" d="M430.515686,262.2452087c-1.4500122,2.7727966,6.0947571,4.4887695,10.0763245,4.9864502
	c3.9815369,0.4977112,7.2467041,1.0319519,10.3549194,0.1900635c3.1082153-0.8418579,8.8650208-8.1901855,9.2435608-11.5605164
	c0.37854-3.3703156-2.2758484-11.4993439-3.9348145-12.1629333c-1.6589966-0.6635895-15.1716003-4.116272-15.1716003-4.116272
	L430.515686,262.2452087z"/>
<polygon style="fill:#FCDBC9;" points="440.6612244,265.1820984 438.2460022,285.1837158 454.3175964,284.0000916 
	452.1459961,259.5569153 "/>
<path style="fill:#37384F;" d="M439.3340454,241.0991974l2.8032837,5.613205c0,0-2.1795044,6.667572-2.3609009,9.2070465
	c-0.2211914,3.096756,2.357605,1.0643158,2.357605,1.0643158s0.3129578,5.5613708,0.9327393,7.6177063
	c0.8263245,2.7417297,2.6925049,4.7441406,6.7885132,4.5005493c2.8555908-0.1696167,5.4631958-1.6784058,7.0335999-4.0692139
	l3.5956116-5.4743958c1.4195862-2.1607971,1.8475952-4.8252106,1.1771851-7.3220062l-1.8111877-6.7451935
	c-0.8247986-3.072403-3.2011719-5.4868011-6.259613-6.3608093l-13.8144531-7.1003113L439.3340454,241.0991974z"/>
<path style="fill:#37384F;" d="M441.8225098,264.4355469c0,0-0.5625916,3.7679138-4.0644836,4.5622253
	c-14.0184021,3.179718-11.1948242-2.3546753-9.0414734-5.2257996c1.327179-1.7695923,2.4331665-2.7649841,2.4331665-2.7649841
	s-1.2165833,3.0967712,2.433197,3.4285583C437.232666,264.7673645,441.8225098,264.4355469,441.8225098,264.4355469z"/>
<path style="fill:#37384F;" d="M433.736908,260.1862183c-0.5872803-0.8222046-1.2599792-1.7229919-1.536499-1.6123962
	c-0.7462463,0.2984924-1.0667725,1.7383118-1.0891113,2.4768982c0.1381226,0.0961304,0.2753296,0.1940308,0.4068604,0.295166
	c2.0528564,1.5779419,4.1898193,3.9523315,4.1898193,3.9523315S436.1112976,263.510376,433.736908,260.1862183z"/>
</svg>
