<?xml version="1.0" encoding="iso-8859-1"?>
<!-- Generator: Adobe Illustrator 25.0.1, SVG Export Plug-In . SVG Version: 6.00 Build 0)  -->
<svg version="1.1" id="step_01" xmlns="http://www.w3.org/2000/svg" xmlns:xlink="http://www.w3.org/1999/xlink" x="0px" y="0px"
	 viewBox="0 0 700 700" style="enable-background:new 0 0 700 700;" xml:space="preserve">
<linearGradient id="SVGID_1_" gradientUnits="userSpaceOnUse" x1="105.3574982" y1="562.9874878" x2="386.6254578" y2="562.9874878">
	<stop  offset="0" style="stop-color:#FFFFFF"/>
	<stop  offset="1" style="stop-color:#28AAFF"/>
</linearGradient>
<rect x="105.3574982" y="525.9749756" style="opacity:0.4;fill:url(#SVGID_1_);" width="281.2679749" height="74.0250015"/>
<linearGradient id="SVGID_2_" gradientUnits="userSpaceOnUse" x1="211.4322662" y1="488.979187" x2="553.6547241" y2="488.979187">
	<stop  offset="0" style="stop-color:#28AAFF"/>
	<stop  offset="1" style="stop-color:#0983E2"/>
</linearGradient>
<polygon style="fill:url(#SVGID_2_);" points="386.6254578,600 238.6084442,525.9754028 238.6084442,377.9584045 
	386.6254578,451.9829712 "/>
<g>
	
		<linearGradient id="SVGID_3_" gradientUnits="userSpaceOnUse" x1="548.7658081" y1="377.9584045" x2="164.3577423" y2="377.9584045">
		<stop  offset="0" style="stop-color:#ABDEFF"/>
		<stop  offset="1" style="stop-color:#28AAFF"/>
	</linearGradient>
	<polygon style="fill:url(#SVGID_3_);" points="534.6425171,377.9584045 386.6254578,451.9829712 238.6084442,377.9584045 
		386.6254578,303.9338379 	"/>
</g>
<linearGradient id="SVGID_4_" gradientUnits="userSpaceOnUse" x1="460.6339722" y1="617.833252" x2="460.6339722" y2="147.9842987">
	<stop  offset="0" style="stop-color:#28AAFF"/>
	<stop  offset="1" style="stop-color:#ABDEFF"/>
</linearGradient>
<polygon style="fill:url(#SVGID_4_);" points="534.6425171,525.9754028 386.6254578,600 386.6254578,451.9829712 
	534.6425171,377.9584045 "/>
<path style="fill:#37384F;" d="M447.4363098,347.3601074l-24.9082031,2.1037292l-8.9654541,30.3609619
	c20.2690125,16.8083801,56.4097595,32.8226624,83.8697815,43.8177185l12.7156372-20.7585449L447.4363098,347.3601074z"/>
<path style="fill:#37384F;" d="M441.8207397,508.5570984l15.2660828,15.9674988
	c0.7676086,0.8033447,2.0410767,0.831604,2.8444519,0.0640259c0.6665039-0.6373901,0.8143921-1.6459961,0.3588562-2.4476318
	l-11.2501831-19.807312c-0.6470947-1.1388245-2.1924744-1.3657227-3.1392822-0.4603882l-4.0159302,3.839386
	C441.0813599,506.4807129,441.0531006,507.7541809,441.8207397,508.5570984z"/>
<path style="fill:#37384F;" d="M510.1480713,402.8839722l-57.6991272,101.0665894
	c-1.6543884,2.5623779-6.8638916,1.6486511-5.9859314-1.2226868c7.9361572-40.6268005,15.5667114-80.1716614,33.2632141-101.6099854
	L510.1480713,402.8839722z"/>
<path style="fill:#4C4E6E;" d="M422.0451965,360.1733093l-33.5412903-3.2761536l0.6047363,33.0301514
	c19.6621704,17.5141907,53.8866577,32.2157288,80.9410095,44.1748047l6.7297363-23.2344055L422.0451965,360.1733093z"/>
<path style="fill:#37384F;" d="M434.3454895,533.9632568l19.0820618,11.1305542
	c0.9600525,0.5596924,2.1915894,0.2357178,2.7513123-0.7243652c0.4647827-0.7963257,0.3283997-1.8067017-0.3306274-2.4515991
	l-16.2831116-15.9295044c-0.9362183-0.9163818-2.4842529-0.7071533-3.1445007,0.4241943l-2.7994995,4.7993774
	C433.0614929,532.1715698,433.3858643,533.4035034,434.3454895,533.9632568z"/>
<path style="fill:#4C4E6E;" d="M476.7793884,410.8677063l-33.4909668,115.7328186
	c-0.8823242,2.9199219-6.1417542,3.4801025-6.0909424,0.4780884c1.2910461-42.3659363-1.8685608-82.8792725,9.21875-108.3706055
	L476.7793884,410.8677063z"/>
<polygon style="fill:#9AA2CC;" points="499.7409973,363.8714294 451.6539612,391.9021606 420.7068481,374.0343933 
	468.7938538,346.0032043 "/>
<polygon style="fill:#6B7099;" points="499.7409973,363.8714294 451.6539612,391.9021606 477.1528015,365.5801086 
	525.2398071,337.5493469 "/>
<path style="fill:#1799FF;" d="M448.937561,317.6665649c0,0-2.8157654-37.0006104,1.2045898-58.0531311l24.2081604-2.9168396
	l-13.1680908,54.5942688L448.937561,317.6665649z"/>
<polygon style="fill:#1799FF;" points="472.4195862,346.697998 461.1822205,311.290863 448.937561,317.6665649 
	468.9430542,351.2175598 "/>
<path style="fill:#FCDBC9;" d="M478.3834534,350.2093811l-5.9638672-3.5113831l-3.0787354,4.8417969l3.5439758,4.7857361
	l2.0984497,7.1446533l2.8660583-2.8334045C480.5728455,357.5385437,481.8008423,353.3813477,478.3834534,350.2093811z"/>
<path style="fill:#0983E2;" d="M389.2763672,317.2238464l-0.7724609,39.6733093
	c6.1907349,13.2087097,57.6201172,3.0775146,58.9324036-9.5370483l-4.7362976-37.692749L389.2763672,317.2238464z"/>
<path style="fill:#0983E2;" d="M444.0216675,333.8737488c5.3272705-15.7463379,33.2088318-74.1420288,30.8362427-82.9949036
	c-11.9241943-10.2892303-61.2952576-2.3271027-74.7825012,14.4993896l-10.7990417,51.8456116L444.0216675,333.8737488z"/>
<path style="fill:#1799FF;" d="M368.4586792,334.678894c0,0,19.6355896-51.5291443,31.6167297-69.3006592
	c9.0872803,0,17.2930603,6.3699646,19.0061646,15.6236267l-26.401947,46.9040527L368.4586792,334.678894z"/>
<path style="fill:#1799FF;" d="M391.5739136,326.8460999l40.3424988,38.6669006l-2.9450684,4.7694397
	c-13.7066345-2.3293152-49.3653564-20.9708862-60.5126648-35.6035461L391.5739136,326.8460999z"/>
<path style="fill:#FCDBC9;" d="M428.971344,370.2824402l9.3136902,2.8660583l5.9264221,4.5085449l0.6276245-3.9810791
	c0.3557739-4.1094971-1.1211853-8.1854553-5.7537537-8.7124939l-8.2552185-0.2675171L428.971344,370.2824402z"/>
<polygon style="fill:#FCDBC9;" points="448.6369629,245.3705139 442.1910706,263.3993835 430.758606,250.0273743 
	440.1279297,235.538147 "/>
<path style="fill:#FCDBC9;" d="M454.355835,249.3882141c-1.431488,2.8788605-5.5639648,3.9382477-9.8067627-0.8929749
	l-4.1660156-7.6204681l0.8404541-16.6296234l10.1965332-7.8310242l15.2850647,9.2682495L454.355835,249.3882141z"/>
<path style="fill:#37384F;" d="M444.9185181,231.1964569c0.7044983,5.006012,3.0717773,3.1300201,6.6123047-3.604538
	l13.4969482,3.0585175l7.7458191-7.1976166l-4.3355103-1.3047943l-15.2312317-8.0014038
	c-6.7411804-3.637207-12.1678467-0.0600433-14.0522156,8.5469818l-1.9408875,10.6163177
	c-0.5230713,2.8612061,0.3363647,5.8005371,2.3173828,7.9303284
	C439.6022034,241.3166199,444.9185181,231.1964569,444.9185181,231.1964569z"/>
<g>
	<path style="fill:#37384F;" d="M453.4371338,247.8343048c-3.0983276,3.0454102-5.700531,1.1024475-7.6010742-0.8109131
		c-1.5415955-1.552002-5.2492371-4.9588928-5.2492371-4.9588928s-1.3143616,2.1078339-0.350708,5.6289978
		c0.963623,3.5211792,4.9510803,7.8402557,4.9510803,7.8402557c3.1877441,3.5757446,8.3985596,2.3274841,10.0838623-2.0280762
		c1.1362915-2.9366455,1.8614502-7.1382599,2.3721313-10.41922
		C457.6175842,243.026474,455.670166,245.6394196,453.4371338,247.8343048z"/>
	<path style="fill:#37384F;" d="M444.9700317,246.1038666c0,0,2.127533,0.3728333,5.0455627,0.5963135
		c3.1750183,0.2431793,4.8185425-0.4038391,4.8185425-0.4038391l2.3390198-1.1789551c0,0-2.2572937-1.2383881-6.323761-1.4292145
		c-4.0664368-0.1908264-8.080719,1.537262-8.080719,1.537262L444.9700317,246.1038666z"/>
</g>
</svg>
