<svg xmlns="http://www.w3.org/2000/svg" xmlns:xlink="http://www.w3.org/1999/xlink" id="step_04" x="0" y="0" version="1.1" viewBox="0 0 700 700" xml:space="preserve" style="enable-background:new 0 0 700 700"><linearGradient id="SVGID_1_" x1="92.159" x2="313.963" y1="113.403" y2="113.403" gradientTransform="matrix(1 0 0 -1 -92.1586914 700.7244263)" gradientUnits="userSpaceOnUse"><stop offset="0" style="stop-color:#fff"/><stop offset="1" style="stop-color:#28aaff"/></linearGradient><polygon style="opacity:.5;fill:url(#SVGID_1_);enable-background:new" points="220.366 600 0 600 0 574.642 216.163 574.646 221.804 581.282 162.718 585.076 204.219 591.679"/><g><path style="fill:#37384f" d="M216.3590546,582.8830566l22.3155823-2.9614868 c1.1223755-0.1488647,1.9116821-1.1793213,1.7623291-2.3016968c-0.1235046-0.9313965-0.8642578-1.659729-1.7977295-1.7669067 l-23.0606689-2.6511841c-1.3262329-0.1525269-2.4417725,0.9827271-2.2664185,2.3061523l0.7446899,5.6126709 C214.206192,582.242981,215.2365875,583.0318604,216.3590546,582.8830566z"/><path style="fill:#37384f" d="M201.8712616,596.8700562l21.8873901,5.2639771 c1.1006165,0.2644653,2.2074585-0.4133301,2.47229-1.5140381c0.2199097-0.9133301-0.2098694-1.8594971-1.0421143-2.2953491 l-20.5635986-10.7683105c-1.1825562-0.6195679-2.6319885,0.0385132-2.9441833,1.3366699l-1.3239136,5.5047607 C200.0923004,595.4984741,200.7701263,596.6055908,201.8712616,596.8700562z"/></g><path style="fill:#4c4e6e" d="M213.2294769,491.0304565c-0.1627502,4.8694458-5.4754639,97.9544678-5.4754639,97.9544678	c-0.6143494,3.0464478-5.5068359,4.0649414-6.1331482,1.0701904	c-7.7523804-37.0674438-18.8122101-75.1512451-14.1763611-102.0013733c0.4671936-2.7058411,1.1806183-5.0411072,2.0646667-8.0800781	C191.2787628,473.8907471,213.3922272,486.1610107,213.2294769,491.0304565z"/><path style="fill:#37384f" d="M228.2256927,460.2418823c-1.6658936-3.4939575-2.8531494-6.0444946-4.282196-9.2501221	c-9.7446442-21.8591919-18.9528656-48.9903564-20.6880798-72.5639038c-0.5849762-7.947052,1.9317169-13.8847961,8.8023834-15.063385	s13.1584625-2.5924683,18.8071747-3.5444946c5.6487122-0.9520569,10.293869,2.6977234,11.3840485,8.651947	c3.6715851,20.0531311,6.786911,39.562439,8.7287445,58.5160522c0.7328644,7.1532288,2.1745453,20.5068359,2.015152,29.7599487	c-0.0708618,4.1141357-1.1962738,7.4156494-1.5777893,9.0045471c-0.3630981,1.512146-0.7845764,3.1980591-1.2675018,5.0298157	C248.015976,478.8676758,229.8915863,463.7358398,228.2256927,460.2418823z"/><path style="fill:#37384f" d="M250.1476288,470.7822876c-1.5786591,5.0992432-30.6321106,103.4748535-30.6321106,103.4748535	c-0.9884338,2.9469604-6.3622742,3.3562622-6.2186279,0.3001099c2.3640747-38.9855347,2.247818-81.9981995,11.1324158-108.8238525	c0.9405518-2.8398743,2.0271912-5.5769043,3.1379089-7.9513855	C230.4307556,451.6603699,251.7262878,465.6830444,250.1476288,470.7822876z"/><path style="fill:#4c4e6e" d="M189.4528351,482.8355408c-1.3814392-9.8295898-3.9507599-28.184845-5.2096863-42.3592834	c-1.0309143-11.6071777-1.5613708-23.130188-1.1487122-34.2720337c0.2212067-5.9723206,0.8730316-9.6871948,1.4377899-15.1520386	c0.2411804-2.3337097,0.5718079-4.8195801,2.6543732-5.0875244c9.3082733-1.1976013,35.6265259-1.493866,35.0732727,5.7430115	c-0.6770325,8.8560181-8.6464539,95.3381348-9.0303955,99.3227844s-1.3151093,5.5667114-2.1461182,7.0733643	C208.0897827,503.5312195,190.8342743,492.6651306,189.4528351,482.8355408z"/><linearGradient id="SVGID_2_" x1="253.593" x2="414.069" y1="90.031" y2="90.031" gradientTransform="matrix(1 0 0 -1 0 700.7244263)" gradientUnits="userSpaceOnUse"><stop offset="0" style="stop-color:#fff"/><stop offset="1" style="stop-color:#28aaff"/></linearGradient><path style="opacity:.5;fill:url(#SVGID_2_);enable-background:new" d="M366.71698,630.7576904	c-37.1896362,0-113.1235809,0-113.1235809,0v-40.1279907H414.069397	C414.069397,590.6296997,403.9066467,630.7576904,366.71698,630.7576904z"/><linearGradient id="SVGID_3_" x1="343.392" x2="513.936" y1="139.962" y2="139.962" gradientTransform="matrix(1 0 0 -1 0 700.7244263)" gradientUnits="userSpaceOnUse"><stop offset="0" style="stop-color:#fff"/><stop offset="1" style="stop-color:#28aaff"/></linearGradient><path style="opacity:.5;fill:url(#SVGID_3_);enable-background:new" d="M466.5835571,580.8264771	c-38.8444519,0-123.1915894,0-123.1915894,0v-40.1279907h170.5439453	C513.9359131,540.6984863,505.4279785,580.8264771,466.5835571,580.8264771z"/><linearGradient id="SVGID_4_" x1="443.763" x2="614.307" y1="189.894" y2="189.894" gradientTransform="matrix(1 0 0 -1 0 700.7244263)" gradientUnits="userSpaceOnUse"><stop offset="0" style="stop-color:#fff"/><stop offset="1" style="stop-color:#28aaff"/></linearGradient><path style="opacity:.5;fill:url(#SVGID_4_);enable-background:new" d="M566.9546509,530.894165	c-38.791748,0-123.1915894,0-123.1915894,0v-40.1279602h170.5439453	C614.3070068,490.7662048,605.7463989,530.894165,566.9546509,530.894165z"/><path style="fill:#0983e2" d="M240.1634521,345.0430603c-0.3024139-3.4870605,0.216156-6.4908447,0.6272888-9.8204651	c1.5809326-12.8030396,5.6106415-31.762207,7.5464478-46.1918335c0.8505096-6.3398438,1.8468628-11.7497559,1.5036621-15.4345398	c-0.3347473-3.5942078-2.7649689-4.5898743-5.5361328-5.1103516c-16.0812073-3.0204163-49.4439697,5.1438293-65.2866364,19.7823792	c-1.8959808,1.7518921-3.4360809,3.2989807-3.2148743,5.4003601c0.1117554,1.0617065,0.655304,3.8169556,0.655304,3.8169556	s7.3157501,47.6844482,8.6901245,57.0218811S240.4658813,348.5301514,240.1634521,345.0430603z"/><path style="fill:#fcdbc9" d="M261.8831482,165.7115479c0.0199585-3.1565857,0.1940308-10.2387848,0.1940308-10.2387848	l-2.2724915-7.2394714l4.0333557,0.7745819c2.3602295,0.453476,4.2874451,2.1539001,5.0312805,4.4390411l1.3307495,4.0890045	c0,0-2.4934082,7.9745483-3.2938232,9.9806671C266.1058655,169.5226898,261.8631897,168.8681335,261.8831482,165.7115479z"/><path style="fill:#fcdbc9" d="M176.7205048,177.9835052c0.9545898-2.2672882,4.1066589-9.381134,4.1066589-9.381134	l5.0923767-5.6251068l-3.9875183-0.9835968c-2.3334961-0.5753784-4.7953186,0.1629791-6.4268188,1.9274597l-2.9191589,3.1574097	l-0.7009735,6.1875763c0,0-0.2289581,1.416275-0.482132,4.2557678S175.7659149,180.2507935,176.7205048,177.9835052z"/><polygon style="fill:#fcdbc9" points="220.148 264.883 217.815 285.628 204.03 274.166 209.909 256.473"/><path style="fill:#fcdbc9" d="M225.5904999,268.2029724c-1.1974182,3.0489197-5.2984924,4.4915161-10.0343933-0.0361023	l-4.9061584-7.3659058l-0.6230774-16.9560852l9.6559143-8.8554382l16.3397827,8.0516815L225.5904999,268.2029724z"/><path style="fill:#37384f" d="M214.3951874,250.5731354c1.1596985,5.0192108,3.3960266,2.9048615,6.3927917-4.2463379	l13.9725647,1.9068756l7.2242432-7.9942932l-4.5168152-0.9398041l-16.1723633-6.7703857	c-7.1665344-3.0934753-12.3578186,1.0192566-13.5062866,9.924057l-1.0280762,10.9493103	c-0.276886,2.9510193,0.85672,5.8587036,3.0565491,7.8450317	C209.8968353,261.318634,214.3951874,250.5731354,214.3951874,250.5731354z"/><g><linearGradient id="SVGID_5_" x1="5410.818" x2="5410.818" y1="158.009" y2="584.625" gradientTransform="matrix(-1 0 0 -1 5842.2988281 700.7244263)" gradientUnits="userSpaceOnUse"><stop offset="0" style="stop-color:#28aaff"/><stop offset="1" style="stop-color:#abdeff"/></linearGradient><polygon style="fill:url(#SVGID_5_)" points="289.286 542.716 573.676 400.49 573.676 116.1 289.286 258.326"/><polyline style="fill:none;stroke:#fff;stroke-width:10.5380507;stroke-miterlimit:10" points="318.172 501.546 392.234 407.715 392.234 374.925 466.285 280.795 466.285 251.4 544.789 157.27"/></g><linearGradient id="SVGID_6_" x1="530.155" x2="614.307" y1="309.856" y2="309.856" gradientTransform="matrix(1 0 0 -1 0 700.7244263)" gradientUnits="userSpaceOnUse"><stop offset="0" style="stop-color:#ffe075"/><stop offset=".273" style="stop-color:#ffe796"/><stop offset=".556" style="stop-color:#ffedb1"/><stop offset=".808" style="stop-color:#fff1c1"/><stop offset="1" style="stop-color:#fff2c7"/></linearGradient><path style="fill:url(#SVGID_6_)" d="M614.3070068,250.8418121h-84.1524048v261.2732544h0.25177	c0.9912109,4.6079712,5.0092773,9.0836792,12.0720825,12.6159058c16.4318848,8.2176514,43.0726318,8.2176514,59.5046997,0	c4.6784058-2.3397827,8.0209351-5.0935059,10.0325928-8.0254517c1.0252686-1.4942627,2.2912598-4.5904541,2.2912598-4.5904541	V250.8418121z"/><linearGradient id="SVGID_7_" x1="572.231" x2="572.231" y1="428.705" y2="470.79" gradientTransform="matrix(1 0 0 -1 0 700.7244263)" gradientUnits="userSpaceOnUse"><stop offset="0" style="stop-color:#ffe075"/><stop offset="1" style="stop-color:#fff2c7"/></linearGradient><path style="fill:url(#SVGID_7_)" d="M601.9832153,236.0977783c16.4315796,8.2176819,16.4315796,21.5411377,0,29.7584839	c-16.4320068,8.2176514-43.0728149,8.2176514-59.5048218,0c-16.4315796-8.2173462-16.4315796-21.540802,0-29.7584839	C558.9104004,227.8801117,585.5512085,227.8801117,601.9832153,236.0977783z"/><path style="fill:#616385" d="M584.3325195,250.946106c-1.1427002-0.7836151-2.7615967-1.317276-4.8526001-1.6009674	c1.8409424-0.3908234,3.2416382-0.9403534,4.197876-1.6481018c0.9602661-0.7107239,1.4362793-1.5082397,1.4362793-2.3950195	c0-1.7358856-1.1386719-3.0432587-3.4281616-3.9221039c-1.5809326-0.6065674-3.671936-0.9983826-6.24823-1.1861115v-3.2557678	h-4.2581787v3.124588h-4.25354v-3.124588h-4.2573853v3.124588h-4.253479v19.3625488h4.253479v2.8051758h4.2573853v-2.8051758	h4.25354v2.8051758h4.2581787v-2.8887634c2.9569092-0.1760559,5.3305054-0.6345825,7.1132202-1.3805237	c2.3291016-0.9740601,3.4955444-2.3707123,3.4955444-4.1899261	C586.0464478,252.6720734,585.4752197,251.73172,584.3325195,250.946106z M578.4115601,245.4884949	c0,0.868927-0.5863037,1.5414581-1.7645264,2.0156097c-1.1845703,0.4741364-2.8172607,0.7102203-4.9082642,0.7102203h-6.5951538	v-5.4377747h6.5437622c2.3051147,0,3.9993286,0.2122803,5.0904541,0.6388092	C577.8689575,243.8399048,578.4115601,244.5302887,578.4115601,245.4884949z M577.5634155,255.9533844	c-1.1864014,0.5217743-2.8377686,0.7856293-4.9437866,0.7856293h-7.4760132v-6.0507965h8.0316162	c4.114563,0.0436401,6.1697998,1.0732574,6.1697998,3.0829163	C579.3450317,254.7035522,578.7498169,255.429657,577.5634155,255.9533844z"/><linearGradient id="SVGID_8_" x1="430.035" x2="514.188" y1="209.764" y2="209.764" gradientTransform="matrix(1 0 0 -1 0 700.7244263)" gradientUnits="userSpaceOnUse"><stop offset="0" style="stop-color:#ffe075"/><stop offset=".273" style="stop-color:#ffe796"/><stop offset=".556" style="stop-color:#ffedb1"/><stop offset=".808" style="stop-color:#fff1c1"/><stop offset="1" style="stop-color:#fff2c7"/></linearGradient><path style="fill:url(#SVGID_8_)" d="M514.1876831,401.0940247h-84.1524048v160.9532776h0.25177	c0.9912109,4.6079712,5.0092773,9.0836792,12.0720825,12.6159058c16.4318848,8.2175903,43.0726318,8.2175903,59.5046997,0	c4.7041321-2.3526611,8.0576477-5.1237793,10.0656738-8.0738525c1.0068359-1.479126,2.2581787-4.5420532,2.2581787-4.5420532	V401.0940247z"/><linearGradient id="SVGID_9_" x1="472.111" x2="472.111" y1="278.453" y2="320.538" gradientTransform="matrix(1 0 0 -1 0 700.7244263)" gradientUnits="userSpaceOnUse"><stop offset="0" style="stop-color:#ffe075"/><stop offset="1" style="stop-color:#fff2c7"/></linearGradient><path style="fill:url(#SVGID_9_)" d="M501.8638916,386.3500061c16.4315796,8.2176819,16.4315796,21.5411377,0,29.7584534	c-16.4320068,8.2176819-43.0728149,8.2176819-59.5048218,0c-16.4315796-8.2173157-16.4315796-21.5407715,0-29.7584534	C458.7910767,378.1323242,485.4318848,378.1323242,501.8638916,386.3500061z"/><linearGradient id="SVGID_10_" x1="329.917" x2="414.069" y1="109.673" y2="109.673" gradientTransform="matrix(1 0 0 -1 0 700.7244263)" gradientUnits="userSpaceOnUse"><stop offset="0" style="stop-color:#ffe075"/><stop offset=".273" style="stop-color:#ffe796"/><stop offset=".556" style="stop-color:#ffedb1"/><stop offset=".808" style="stop-color:#fff1c1"/><stop offset="1" style="stop-color:#fff2c7"/></linearGradient><path style="fill:url(#SVGID_10_)" d="M414.069397,551.3452759h-84.1524658v60.6333008h0.25177	c0.9912109,4.6079102,5.0092773,9.0836182,12.0720825,12.6159058c16.4319458,8.2175903,43.0726929,8.2175903,59.5047607,0	c4.6217651-2.3114624,7.9397888-5.0269165,9.9589539-7.9190674c1.0664368-1.5274658,2.3648987-4.6968384,2.3648987-4.6968384	V551.3452759z"/><path style="fill:#616385" d="M484.2131958,401.1983337c-1.1427002-0.7836304-2.7615967-1.3172913-4.8526001-1.6009827	c1.8409424-0.3908081,3.2416382-0.9403381,4.197876-1.6481018c0.9602661-0.7107239,1.4362793-1.5082397,1.4362793-2.3950195	c0-1.7358704-1.1386719-3.0432434-3.4281616-3.9220886c-1.5809326-0.6065674-3.671936-0.9983826-6.24823-1.1861267v-3.2557678	h-4.2581787v3.1246033h-4.25354v-3.1246033h-4.2573853v3.1246033h-4.253479v19.3625183h4.253479v2.8052063h4.2573853v-2.8052063	h4.25354v2.8052063h4.2581787v-2.8887634c2.9569092-0.1760559,5.3305054-0.6345825,7.1132202-1.3805237	c2.3291016-0.9740906,3.4955444-2.3707275,3.4955444-4.1899414	C485.927124,402.9242859,485.355896,401.9839478,484.2131958,401.1983337z M478.2922363,395.7407227	c0,0.868927-0.5863037,1.5414734-1.7645264,2.0155945c-1.1845703,0.4741516-2.8172607,0.7102356-4.9082642,0.7102356h-6.5951538	v-5.4377747h6.5437622c2.3051147,0,3.9993286,0.2122803,5.0904541,0.6387939	C477.7496338,394.0921326,478.2922363,394.7825012,478.2922363,395.7407227z M477.4440918,406.2056274	c-1.1863403,0.5217285-2.8377686,0.7855835-4.9437866,0.7855835h-7.4760132v-6.0507812h8.0316162	c4.114563,0.0436401,6.1697998,1.0732727,6.1697998,3.0829163	C479.225708,404.95578,478.6304932,405.6818848,477.4440918,406.2056274z"/><linearGradient id="SVGID_11_" x1="371.993" x2="371.993" y1="128.201" y2="170.286" gradientTransform="matrix(1 0 0 -1 0 700.7244263)" gradientUnits="userSpaceOnUse"><stop offset="0" style="stop-color:#ffe075"/><stop offset="1" style="stop-color:#fff2c7"/></linearGradient><path style="fill:url(#SVGID_11_)" d="M401.7455444,536.6012573c16.4315796,8.2176514,16.4315796,21.5411377,0,29.7584229	c-16.4320068,8.2177124-43.0728149,8.2177124-59.5047607,0c-16.4316406-8.2172852-16.4316406-21.5407715,0-29.7584229	C358.6727295,528.3835449,385.3135376,528.3835449,401.7455444,536.6012573z"/><path style="fill:#616385" d="M384.0948486,551.449585c-1.1427002-0.7836304-2.7615967-1.3173218-4.8526001-1.6010132	c1.8409424-0.3908081,3.2416382-0.9403076,4.197876-1.6480713c0.9602661-0.7107544,1.4362793-1.5082397,1.4362793-2.3950195	c0-1.7359009-1.1386719-3.0432739-3.4281006-3.9221191c-1.5809937-0.6065674-3.6719971-0.9983521-6.248291-1.1860962v-3.2557983	h-4.2581787v3.1246338h-4.25354v-3.1246338h-4.2573853v3.1246338h-4.253479v19.3624878h4.253479v2.8052368h4.2573853v-2.8052368	h4.25354v2.8052368h4.2581787v-2.8887939c2.9569092-0.1760254,5.3305664-0.6345825,7.1132202-1.3805542	c2.3291016-0.9740601,3.4956055-2.3706665,3.4956055-4.1899414	C385.8088379,553.1755371,385.2376099,552.2351685,384.0948486,551.449585z M378.1738892,545.9919434	c0,0.8689575-0.5863037,1.5415039-1.7645264,2.015625c-1.1845703,0.4741211-2.8172607,0.7102051-4.9082642,0.7102051h-6.5951538	v-5.4377441h6.5437622c2.3051147,0,3.9993286,0.2122803,5.0904541,0.6387939	C377.6312866,544.3433838,378.1738892,545.0337524,378.1738892,545.9919434z M377.3257446,556.4568481	c-1.1863403,0.5217285-2.8377686,0.7855835-4.9437866,0.7855835h-7.4760132v-6.0507812h8.0316162	c4.114563,0.0436401,6.1697998,1.0733032,6.1697998,3.0828857	C379.1073608,555.2069702,378.512146,555.9331055,377.3257446,556.4568481z"/><g><path style="fill:#37384f" d="M224.6999969,266.4750366c-2.8105469,3.3701782-5.6199951,1.6767578-7.7211914-0.0569153 c-1.7043762-1.40625-5.7709961-4.460907-5.7709961-4.460907s-1.1109009,2.2498169,0.2089539,5.6930542 s5.7586975,7.3868713,5.7586975,7.3868713c3.5608826,3.2762146,8.6740723,1.5017395,9.9336548-3.0444031 c0.8492126-3.065155,1.1590271-7.3608093,1.3450623-10.7096252 C228.4224701,261.2253723,226.7256317,264.046051,224.6999969,266.4750366z"/><path style="fill:#37384f" d="M216.0165863,265.5802307c0,0,2.1756897,0.1625366,5.131073,0.0960999 c3.2156677-0.0722656,4.8031616-0.8865662,4.8031616-0.8865662l2.2334595-1.4183655c0,0-2.3924561-1.0196228-6.4989319-0.8057861 c-4.1065063,0.2138062-7.9691162,2.3512268-7.9691162,2.3512268L216.0165863,265.5802307z"/></g><path style="fill:#1799ff" d="M165.7099457,236.4186096c1.0158691,3.3343506,13.8023834,0.9713287,13.5473633-5.5890808	s-2.1072845-50.8056946-2.1072845-50.8056946l-0.0966644-2.330658l-5.949585-0.4453888c0,0-0.4482727,1.9975128-0.6796265,3.0383759	c-2.4367981,10.9635162-5.3268127,24.8907776-6.1344147,37.0223999	C163.797287,224.7058563,164.6940765,233.084259,165.7099457,236.4186096z"/><path style="fill:#1799ff" d="M170.3442841,225.0415955c-4.8110504,0.4976959-5.5866547,5.1599579-5.1911774,8.7926178	c0.3203278,2.9422607,3.8678741,28.3218231,8.3264465,49.6912994c1.0462036,5.0143433,1.3773193,6.5523682,2.4259644,10.6420898	c1.1059875,4.3133545,3.5856781,4.2664185,6.7672729,3.2738037c5.905777-1.8424988,12.9970093-5.430603,14.5783081-6.1493835	c2.4331665-1.1059875,2.5437775-3.9815674,1.1830597-7.4991455c-0.9884338-2.5552368-16.8302612-46.8821259-18.633667-51.7835541	S175.4239349,224.5161133,170.3442841,225.0415955z"/><path style="fill:#0983e2" d="M266.1541748,224.379715c-1.5818787,3.6462555-14.2672424,2.4331818-13.1793671-6.1902008	c0.9029083-5.7544708,8.6248627-52.4779663,8.6248627-52.4779663l5.9597778,0.2786407	c1.3834839,13.8401794,3.2390747,33.6446075,1.2029114,48.0973206	C268.1492615,218.4394379,267.7360535,220.7334595,266.1541748,224.379715z"/><path style="fill:#0983e2" d="M267.0389709,222.2783356c-1.0331116,3.4437103-16.0802155,51.5206757-17.9387054,57.6681061	s-20.0164337,2.6299744-17.6286926-3.6296997c2.3877411-6.2597046,19.283493-52.1268768,19.283493-52.1268768	s1.1691437-3.0333862,2.3484497-6.3354797C254.7624969,213.2092285,268.6979675,216.7483978,267.0389709,222.2783356z"/><path style="fill:#0983e2" d="M185.4170227,340.6191101c-0.1890259,7.2774353-0.6772003,50.5095215-0.6772003,50.5095215	c6.3081055,13.4597473,58.7160645,3.1360168,60.0535278-9.7182007c0,0-3.5855103-28.1763611-4.8265991-38.4100952	S185.6382141,332.1029968,185.4170227,340.6191101z"/></svg>