<svg xmlns="http://www.w3.org/2000/svg" viewBox="0 0 122 37"><g fill="#000" fill-rule="evenodd"><path fill="#000" d="M120.087 12.612l-.726 2.654-.1.411-.271 1.05c-.067.248-.152.687-.253 1.316-.118-.63-.338-1.405-.659-2.328-.04-.107-.073-.206-.101-.297-.028-.09-.056-.174-.084-.25l-.86-2.556h-1.857l2.717 6.693v5.05h1.755v-5.05l2.27-6.693h-1.831zm-10.895 1.384h2.025v10.36h1.721v-10.36h1.967v-1.384h-5.713v1.384zm-3.917 10.36h1.755V12.611h-1.755v11.743zm-6.92-10.367c-.644 1.024-.966 2.586-.966 4.685 0 3.884 1.319 5.826 3.957 5.826.523 0 .996-.107 1.417-.32v-1.452c-.404.162-.75.243-1.037.243-1.648 0-2.472-1.45-2.472-4.35 0-.807.046-1.505.139-2.096.093-.59.236-1.078.43-1.464.194-.385.44-.67.738-.856.298-.185.656-.277 1.072-.277.304 0 .68.099 1.13.297v-1.423c-.477-.233-.962-.35-1.45-.35-1.328 0-2.314.512-2.958 1.537zm-9.935 5.529h1.527v.556c0 1.054-.116 1.82-.346 2.296-.225.446-.616.67-1.173.67-.607 0-1.021-.315-1.24-.944-.22-.628-.329-1.833-.329-3.612 0-1.76.107-2.98.32-3.659.214-.649.614-.973 1.198-.973.428 0 .749.119.962.357.107.117.205.28.296.49.09.211.171.471.244.78l1.637-.616c-.27-.857-.646-1.473-1.13-1.848-.479-.37-1.145-.556-2-.556-1.12 0-1.949.384-2.49 1.15-.573.816-.86 2.456-.86 4.92 0 2.155.262 3.689.785 4.602.529.913 1.414 1.369 2.658 1.369 1.203 0 2.024-.41 2.464-1.232.444-.801.666-2.345.666-4.632v-.457h-3.19v1.339zm-8.353-2.525c0 .649.033 1.34.1 2.076.068.735.172 1.557.313 2.464-.388-1.5-.835-2.913-1.342-4.236l-1.746-4.685h-1.637v11.743h1.73l-.093-5.118c0-.147-.002-.28-.004-.396-.003-.117-.008-.215-.013-.296l-.093-1.453-.093-1.194c-.005-.066-.014-.146-.025-.24l-.042-.338.089.35c.025.1.043.187.054.258.135.568.283 1.11.443 1.628.16.517.33 1.021.51 1.513l1.967 5.286h1.645V12.612h-1.763v4.38zm-9.803 7.362h1.755V12.612h-1.755v11.743zm-5.5-7.362c0 .649.034 1.34.101 2.076.068.735.172 1.557.313 2.464-.389-1.5-.836-2.913-1.342-4.236l-1.746-4.685h-1.637v11.743h1.73l-.093-5.118c0-.147-.002-.28-.005-.396-.002-.117-.007-.215-.012-.296l-.093-1.453-.093-1.194c-.005-.066-.014-.146-.025-.24l-.042-.338.088.35c.026.1.044.187.055.258.135.568.283 1.11.443 1.628.16.517.33 1.021.51 1.513l1.967 5.286h1.645V12.612h-1.764v4.38zm-9.802 7.362h1.755V12.612h-1.755v11.743zm-5.717-11.743l-1.022 4.708-.194.844-.219 1.278-.245 1.346c-.005.02-.01.055-.016.103l-.026.201c-.095-.659-.2-1.289-.316-1.89-.116-.6-.244-1.2-.384-1.798l-1.148-4.792h-1.501l-1.072 11.743h1.654l.506-8.092c.09.659.19 1.289.3 1.89.11.6.234 1.192.375 1.775l1.03 4.427h1.18l1.098-5.126.084-.403.22-1.072c.027-.143.06-.317.096-.525.037-.208.078-.452.123-.73l.042-.236.012.133.005.064.042 1.446.076 1.574c0 .096.004.218.012.365l.03.525.295 3.985h1.68l-1.199-11.743h-1.518z"/><path fill="#28aaff" d="M33.718 18.596H31.53v3.912h-.283v-.004h-2.212v8.865c3.673-3.046 6.025-7.639 6.062-12.773h-1.379zM6.766 30.426V24.56h-.817v-3.652l-4.03-.004c.54 3.705 2.296 7.018 4.847 9.52zm21.3-17.577h-3.818v.743h-1.8v6.867l5.617 8.274V12.85zm-18.2 3.924v2.082l-2.13.01v12.442c1.81 1.519 3.945 2.658 6.284 3.3V16.774H9.865zm5.124-1.723v19.795c1.108.233 2.255.358 3.432.358 1.044 0 2.065-.102 3.057-.287v-9.15l-6.49-10.716zm12.778 14.548c-.81.688-2.183 1.627-2.698 1.632-.516.005-.795-.506-.795-.506l-1.826-3.182v7.165c2.047-.511 3.945-1.404 5.616-2.597v-2.794c-.073.08-.167.172-.297.282zm-8.785-18.022v2.675h.871v2.287l-3.209-4.962h2.338z"/><path fill="#000" d="M18.422 35.173c-9.18 0-16.651-7.49-16.651-16.698 0-9.207 7.471-16.698 16.65-16.698 9.18 0 16.649 7.491 16.649 16.698 0 9.208-7.469 16.698-16.648 16.698m0-35.173C8.264 0 0 8.288 0 18.475c0 10.188 8.264 18.476 18.422 18.476 10.158 0 18.42-8.288 18.42-18.476C36.843 8.288 28.58 0 18.423 0"/><path fill="#000" d="M25.994 26.797c-1.083-1.565-2.895-4.184-5.934-8.765-1.932-2.913-3.622-5.475-5.167-7.831l-.156-.237.701-.455c.398-.258.513-.793.255-1.192-.05-.078-.116-.148-.202-.215l-.356-.273c1.34-.7 2.755-1.277 4.197-1.75l-.425-1.789c-2.24.054-4.469.645-6.458 1.716l-.224.12-.141-.211c-.066-.097-.25-.373-.334-.472-.376.007-1.128.521-1.252.793.052.116.222.404.282.506l.13.22-.204.15c-2.786 2.06-4.74 5.058-5.501 8.442-.128.572-.221 1.157-.28 1.751 1.38-2.447 3.43-4.765 5.995-6.763l.37-.288.079.463c.02.114.062.223.125.321.16.247.43.395.724.395.165 0 .326-.048.465-.138l.614-.397.15.247 4.82 8.023c2.824 4.722 4.406 7.488 5.35 9.141.816 1.426 1.232 2.153 1.362 2.202.425-.006 2.27-1.178 2.417-1.536.025-.114-.452-.803-1.402-2.178"/></g></svg>