<svg xmlns="http://www.w3.org/2000/svg" xmlns:xlink="http://www.w3.org/1999/xlink" id="V2" x="0" y="0" version="1.1" viewBox="0 0 540.25 540.25" xml:space="preserve" style="enable-background:new 0 0 540.2496338 540.2496338"><style type="text/css">.st0{fill:#fff}.st1{fill:none;stroke:#fff;stroke-width:5.2000003;stroke-miterlimit:10}.st2{fill:#28aaff}</style><g><g><path d="M128.809433,230.0058289l0.1523438,2.4400482c1.6402283-1.9144592,3.8898468-2.8716888,6.7386627-2.8716888 c3.1281281,0,5.2660217,1.1933594,6.4187622,3.5851593c1.7011719-2.3917999,4.0878906-3.5851593,7.1703033-3.5851593 c2.5796967,0,4.4992218,0.7109375,5.7585907,2.1378937c1.2593842,1.4269562,1.9042969,3.5292969,1.9347687,6.3095703v15.3613281 h-5.2507782V238.171463c0-1.4828186-0.3249969-2.5695343-0.9699249-3.2626953 c-0.6499939-0.6906281-1.7214813-1.0359497-3.2195282-1.0359497c-1.1984406,0-2.1734314,0.319931-2.9300842,0.9623108 c-0.7566376,0.6398468-1.2847595,1.4777374-1.5843658,2.5162048l0.0203094,16.0316467h-5.2507782v-15.3841858 c-0.0710907-2.7498016-1.4777374-4.1259766-4.2148438-4.1259766c-2.1023407,0-3.5953217,0.8582153-4.4738312,2.5720825v16.9380798 h-5.2457047v-23.3771515H128.809433z" class="st0"/><path d="M162.3859863,223.9349365c0-0.8074188,0.2539062-1.4777374,0.7667999-2.0109406 s1.2441406-0.7998047,2.1937561-0.7998047c0.9496002,0,1.6859283,0.2666016,2.2039032,0.7998047 s0.776947,1.2035217,0.776947,2.0109406c0,0.7921906-0.2589722,1.4497986-0.776947,1.9753876 s-1.254303,0.7896423-2.2039032,0.7896423c-0.9496155,0-1.6808624-0.2640533-2.1937561-0.7896423 S162.3859863,224.7271271,162.3859863,223.9349365z M167.9617767,253.3829803h-5.2507782v-23.3771515h5.2507782V253.3829803z" class="st0"/><path d="M178.5445862,230.0058289l0.1523438,2.6990204c1.7265625-2.0870972,3.9964905-3.130661,6.8046875-3.130661 c4.8699188,0,7.348053,2.7853546,7.4343719,8.3611298v15.4476624h-5.2507782v-15.1455078 c0-1.4828186-0.3199158-2.5822296-0.9597626-3.2957001c-0.644928-0.7134857-1.6910248-1.0689545-3.1433563-1.0689545 c-2.1175842,0-3.6968842,0.9572296-4.7328186,2.8742218v16.6359406h-5.2507782v-23.3771515H178.5445862z" class="st0"/><path d="M198.2934113,223.9349365c0-0.8074188,0.2539062-1.4777374,0.7667999-2.0109406 s1.2441406-0.7998047,2.1937561-0.7998047c0.9496002,0,1.6859283,0.2666016,2.2039032,0.7998047 c0.5179596,0.5332031,0.776947,1.2035217,0.776947,2.0109406c0,0.7921906-0.2589874,1.4497986-0.776947,1.9753876 c-0.5179749,0.525589-1.254303,0.7896423-2.2039032,0.7896423c-0.9496155,0-1.6808624-0.2640533-2.1937561-0.7896423 S198.2934113,224.7271271,198.2934113,223.9349365z M203.8692017,253.3829803h-5.2507935v-23.3771515h5.2507935V253.3829803z" class="st0"/><path d="M214.4570923,230.0058289l0.1523438,2.6990204c1.7265625-2.0870972,3.9964752-3.130661,6.8046875-3.130661 c4.8699188,0,7.3480377,2.7853546,7.4343719,8.3611298v15.4476624h-5.2507782v-15.1455078 c0-1.4828186-0.319931-2.5822296-0.9597778-3.2957001c-0.6449127-0.7134857-1.6910095-1.0689545-3.1433563-1.0689545 c-2.117569,0-3.6968689,0.9572296-4.7328033,2.8742218v16.6359406h-5.2507935v-23.3771515H214.4570923z" class="st0"/><path d="M233.2766113,241.5204773c0-3.6283112,0.8531342-6.5279236,2.5593872-8.6962891 c1.7062378-2.1683502,3.9710846-3.25,6.7945251-3.25c2.6660156,0,4.7632751,0.9267578,6.2867126,2.7853546l0.238678-2.353714 h4.7328186v22.663681c0,3.0697174-0.9546967,5.4894562-2.8640747,7.2591705 c-1.9093628,1.7722778-4.4839783,2.6583862-7.7238159,2.6583862c-1.7113342,0-3.3871155-0.3554688-5.0222778-1.0689392 c-1.6351471-0.7134705-2.8792877-1.6452942-3.7273407-2.7980347l2.4832001-3.1560516 c1.6148529,1.9169769,3.6004028,2.8742218,5.9667969,2.8742218c1.741806,0,3.117981-0.47229,4.1234436-1.4142761 c1.0105438-0.944519,1.5132751-2.3308563,1.5132751-4.1589813v-1.5767517 c-1.5132751,1.6833954-3.5292969,2.5263672-6.0480347,2.5263672c-2.7371216,0-4.9765625-1.0867157-6.7082062-3.2626953 C234.1449738,248.3784943,233.2766113,245.367157,233.2766113,241.5204773z M238.5070801,241.9749756 c0,2.3486328,0.477356,4.1945343,1.4320374,5.5427704c0.9597626,1.3457031,2.2902374,2.0185547,3.9863281,2.0185547 c2.1175842,0,3.691803-0.9064484,4.7124939-2.7218781v-10.2832031c-0.9953003-1.7722626-2.5492096-2.6584015-4.6667938-2.6584015 c-1.7265625,0-3.0722656,0.6830139-4.0320282,2.0515747C238.984436,237.2929382,238.5070801,239.3114929,238.5070801,241.9749756z" class="st0"/><path d="M268.8844299,249.6226349c1.3101501,0,2.3968811-0.3808594,3.2601624-1.1451263 c0.8683472-0.7617188,1.3253784-1.7062531,1.386322-2.8285065h4.946106 c-0.0558777,1.4548798-0.5129089,2.81073-1.3609619,4.0726471c-0.8480225,1.2593842-2.0007629,2.2572327-3.4581909,2.9910126 c-1.4523315,0.7363281-3.0214844,1.1019592-4.707428,1.1019592c-3.2702942,0-5.8652344-1.0587921-7.7796936-3.1763611 c-1.9144287-2.1175842-2.8742065-5.0400391-2.8742065-8.7724609v-0.5382843c0-3.5572357,0.9496155-6.4060516,2.8539124-8.5464935 c1.8992004-2.1378784,4.4941406-3.2068329,7.7745972-3.2068329c2.7828064,0,5.0476685,0.809967,6.7996216,2.4298859 c1.7468567,1.6199188,2.6660156,3.7476501,2.7523499,6.3832092h-4.946106 c-0.0609436-1.338089-0.5179749-2.4400482-1.3710938-3.3058624c-0.8582153-0.8632812-1.9500122-1.2949219-3.2753906-1.2949219 c-1.7011719,0-3.011322,0.6144562-3.930481,1.8459015c-0.9241943,1.2314453-1.3913879,3.1027222-1.4066162,5.6087799v0.8429718 c0,2.5339813,0.4570312,4.4255829,1.3710938,5.6697235C265.832489,249.0005646,267.1578674,249.6226349,268.8844299,249.6226349z" class="st0"/><path d="M282.453186,223.9349365c0-0.8074188,0.2539062-1.4777374,0.7667847-2.0109406 c0.5129089-0.5332031,1.2441406-0.7998047,2.1937561-0.7998047s1.6859436,0.2666016,2.2039185,0.7998047 c0.5179443,0.5332031,0.776947,1.2035217,0.776947,2.0109406c0,0.7921906-0.2590027,1.4497986-0.776947,1.9753876 c-0.5179749,0.525589-1.254303,0.7896423-2.2039185,0.7896423s-1.6808472-0.2640533-2.1937561-0.7896423 C282.7070923,225.3847351,282.453186,224.7271271,282.453186,223.9349365z M288.0289612,253.3829803h-5.2507935v-23.3771515 h5.2507935V253.3829803z" class="st0"/><path d="M300.3180237,224.32341v5.6824188h4.1285095v3.8873138h-4.1285095v13.0507812 c0,0.8937378,0.1777344,1.5386658,0.5332031,1.9347534c0.3504028,0.3961029,0.980072,0.5941467,1.8890686,0.5941467 c0.6042786,0,1.2136536-0.0736389,1.8331909-0.2158203v4.059967c-1.1933594,0.3326111-2.3460999,0.4976501-3.453125,0.4976501 c-4.0371094,0-6.0531311-2.2242126-6.0531311-6.6752014v-13.2462769h-3.8441162v-3.8873138h3.8441162V224.32341H300.3180237z" class="st0"/><path d="M316.6289673,245.8648224l4.7531128-15.8589935h5.5960999l-9.2879028,26.9216919 c-1.4269409,3.9304504-3.8492126,5.8982239-7.2617188,5.8982239c-0.7617188,0-1.6046753-0.132019-2.5289001-0.3910217v-4.0827942 l0.9953308,0.0660095c1.3253784,0,2.3206787-0.2412109,2.9909973-0.7236328s1.1984558-1.2923889,1.589447-2.4298859 l0.7566528-2.0058594l-8.2113342-23.2527313h5.6621094L316.6289673,245.8648224z" class="st0"/><path d="M329.6594238,247.8529053c0.980072,0,1.7367249,0.2767487,2.269928,0.8302765 c0.5332031,0.5560455,0.7972717,1.2492065,0.7972717,2.0845642c0,0.8226624-0.2640686,1.5031281-0.7972717,2.0414124 c-0.5332031,0.5408173-1.289856,0.8125-2.269928,0.8125c-0.9343567,0-1.6757812-0.2666016-2.2242126-0.7998047 s-0.8226624-1.21875-0.8226624-2.0541077s0.2691345-1.5285187,0.8023376-2.0845642 C327.9480896,248.1296539,328.6945801,247.8529053,329.6594238,247.8529053z" class="st0"/><path d="M348.3520203,249.6226349c1.3101501,0,2.3968506-0.3808594,3.2601318-1.1451263 c0.8683777-0.7617188,1.3254089-1.7062531,1.3863525-2.8285065h4.9460754 c-0.0558472,1.4548798-0.5128784,2.81073-1.3609314,4.0726471c-0.848053,1.2593842-2.0007935,2.2572327-3.4581909,2.9910126 c-1.4523621,0.7363281-3.0214844,1.1019592-4.707428,1.1019592c-3.2703247,0-5.8652344-1.0587921-7.7796936-3.1763611 c-1.9144592-2.1175842-2.8742065-5.0400391-2.8742065-8.7724609v-0.5382843c0-3.5572357,0.949585-6.4060516,2.8538818-8.5464935 c1.899231-2.1378784,4.4941406-3.2068329,7.7746277-3.2068329c2.7828064,0,5.0476379,0.809967,6.7995911,2.4298859 c1.7468872,1.6199188,2.6660156,3.7476501,2.7523499,6.3832092h-4.9460754 c-0.0609436-1.338089-0.5179749-2.4400482-1.3710938-3.3058624c-0.8582153-0.8632812-1.9500122-1.2949219-3.2753906-1.2949219 c-1.7011719,0-3.0113525,0.6144562-3.930481,1.8459015c-0.9242249,1.2314453-1.3914185,3.1027222-1.4066467,5.6087799v0.8429718 c0,2.5339813,0.4570312,4.4255829,1.3710938,5.6697235C345.3000488,249.0005646,346.6254578,249.6226349,348.3520203,249.6226349z" class="st0"/><path d="M360.9254456,241.4773102c0-2.2902222,0.4519653-4.351944,1.3609314-6.1902313 c0.9089966-1.8357391,2.1835938-3.2474518,3.823822-4.2351532c1.6453247-0.9851532,3.5292969-1.4777374,5.6621094-1.4777374 c3.1535339,0,5.7128906,1.013092,7.6832275,3.044342c1.96521,2.03125,3.0265503,4.7251892,3.18396,8.0818329l0.0203247,1.2314453 c0,2.3054657-0.441803,4.3646545-1.3253784,6.1800842c-0.8886719,1.8128815-2.1531372,3.2195282-3.8035278,4.2122955 c-1.6503906,0.9927826-3.5546875,1.4904327-5.7128906,1.4904327c-3.3007812,0-5.9414062-1.0968781-7.921875-3.2957001 c-1.9804688-2.1962891-2.9707031-5.1238251-2.9707031-8.7826233V241.4773102z M366.176239,241.9318085 c0,2.4044952,0.4976501,4.2884827,1.4929504,5.6494141c0.9902344,1.3609314,2.3765564,2.0414124,4.1488342,2.0414124 c1.7671814,0,3.1484375-0.6906281,4.133606-2.0744171c0.9902344-1.3812561,1.4827881-3.404892,1.4827881-6.0709076 c0-2.3613281-0.5078125-4.2351532-1.5234375-5.616394c-1.015625-1.3837891-2.3968506-2.0744171-4.1386719-2.0744171 c-1.7164001,0-3.0773315,0.6804657-4.0827942,2.0413971C366.6789551,237.1888428,366.176239,239.2226257,366.176239,241.9318085z" class="st0"/><path d="M392.0391235,230.0058289l0.1523438,2.4400482c1.6402283-1.9144592,3.8898315-2.8716888,6.738678-2.8716888 c3.1281128,0,5.2659912,1.1933594,6.4187317,3.5851593c1.7011719-2.3917999,4.0878906-3.5851593,7.1703186-3.5851593 c2.5796814,0,4.4992065,0.7109375,5.758606,2.1378937c1.2593689,1.4269562,1.9042969,3.5292969,1.9347534,6.3095703v15.3613281 h-5.2507935V238.171463c0-1.4828186-0.3249817-2.5695343-0.9699097-3.2626953 c-0.6499939-0.6906281-1.7214966-1.0359497-3.2195435-1.0359497c-1.1984253,0-2.1734314,0.319931-2.9300537,0.9623108 c-0.7566528,0.6398468-1.28479,1.4777374-1.5843811,2.5162048l0.0202942,16.0316467h-5.2507629v-15.3841858 c-0.071106-2.7498016-1.4777527-4.1259766-4.2148438-4.1259766c-2.102356,0-3.5953064,0.8582153-4.4738464,2.5720825v16.9380798 h-5.245697v-23.3771515H392.0391235z" class="st0"/></g><g><path d="M178.2957611,165.6355133h-12.5582123v34.0513763h-10.085144v-34.0513763h-12.3246155v-7.7872925h34.9679718 V165.6355133z" class="st0"/><path d="M198.0953674,184.8892365h-5.4589844v14.7976532h-10.0902405v-41.8386688h16.4683685 c4.961319,0,8.8410187,1.101944,11.6339874,3.3007812c2.7980347,2.201355,4.1996002,5.3117065,4.1996002,9.3310547 c0,2.9072266-0.5890656,5.3193359-1.7671814,7.2312469c-1.1781311,1.914444-3.0265656,3.4658203-5.5351562,4.6515656 l8.7394562,16.8923798v0.4316406h-10.8062592L198.0953674,184.8892365z M192.6363831,177.1298523h6.3781281 c1.914444,0,3.3566437-0.5027313,4.3214874-1.5107422c0.9699097-1.0105438,1.4523315-2.4171906,1.4523315-4.2224579 c0-1.8027344-0.4874878-3.2195282-1.4624939-4.2478485c-0.980072-1.0283203-2.4171906-1.541214-4.3113251-1.541214h-6.3781281 V177.1298523z" class="st0"/><path d="M253.7516174,157.8482208v27.386322c0,3.1027374-0.6601562,5.7890625-1.9804688,8.0589905 c-1.3203125,2.2699127-3.2195282,3.9990234-5.6875,5.1873016c-2.473053,1.1882782-5.3929749,1.7798767-8.7648468,1.7798767 c-5.0984344,0-9.1101532-1.3203125-12.0402374-3.9634705c-2.930069-2.6457062-4.4281158-6.2664032-4.4839783-10.8621063 v-27.5869141h10.1460876v27.7874908c0.1117249,4.5779266,2.2394562,6.8681641,6.3781281,6.8681641 c2.0871124,0,3.6664124-0.5763702,4.7378998-1.7240143c1.0765533-1.1502075,1.6097565-3.0189514,1.6097565-5.603714v-27.3279266 H253.7516174z" class="st0"/><path d="M281.6254578,188.5657959c0-1.4752045-0.5230713-2.6228485-1.5640869-3.4480438 c-1.0460815-0.8226624-2.8792725-1.6757812-5.5046692-2.556839s-4.7683716-1.7341766-6.4390564-2.556839 c-5.4183655-2.6634827-8.1300964-6.3222656-8.1300964-10.9763641c0-2.318161,0.6753845-4.3621063,2.0261841-6.1343842 c1.350769-1.7722626,3.2601624-3.1509705,5.7331848-4.1386719c2.473053-0.9876862,5.2457275-1.4802704,8.3332214-1.4802704 c3.0062561,0,5.7027283,0.5357513,8.089447,1.6097717c2.3816528,1.0714874,4.2351685,2.5999908,5.5605469,4.5830078 c1.3203125,1.9830017,1.9804688,4.2478485,1.9804688,6.7945251h-10.0546875c0-1.7037048-0.5230408-3.0265656-1.5691528-3.9634705 c-1.0410156-0.9394531-2.4577942-1.4091797-4.2351379-1.4091797c-1.8027344,0-3.2246094,0.3986359-4.2707214,1.1933594 c-1.0410156,0.7947235-1.5640564,1.8052673-1.5640564,3.0316315c0,1.0714874,0.573822,2.0439453,1.7214966,2.914856 c1.1527405,0.8734283,3.1738281,1.7722626,6.0632629,2.7015533c2.8945312,0.929306,5.2711182,1.9296875,7.1296997,3.0037079 c4.5195312,2.6050873,6.7792969,6.1978607,6.7792969,10.7757874c0,3.658783-1.3761597,6.5330048-4.1386719,8.6201172 c-2.7574158,2.0871124-6.5406189,3.130661-11.3496094,3.130661c-3.3921814,0-6.4593811-0.6068268-9.2066345-1.8230438 c-2.7523499-1.216217-4.8191528-2.8843689-6.2105408-4.9994202c-1.3863525-2.117569-2.0820312-4.555069-2.0820312-7.315033 h10.1156006c0,2.2419891,0.5789185,3.894928,1.7367249,4.958786c1.1578064,1.0613251,3.0418091,1.5945282,5.6468811,1.5945282 c1.6656189,0,2.9859314-0.3605347,3.9507751-1.0791016C281.1430359,190.8788757,281.6254578,189.8683319,281.6254578,188.5657959z" class="st0"/><path d="M329.7254333,165.6355133h-12.558197v34.0513763h-10.085144v-34.0513763h-12.3246155v-7.7872925h34.9679565 V165.6355133z" class="st0"/><path d="M359.9250488,181.9286804h-15.8589783v9.9988251h18.7332153v7.7593842h-28.8234558v-41.8386688h28.879303 v7.7872925h-18.7890625v8.8232422h15.8589783V181.9286804z" class="st0"/><path d="M366.9074707,199.6868896v-41.8386688h13.477356c3.6968689,0,7.0230408,0.8404236,9.9734192,2.5162048 c2.9504089,1.6757812,5.2507935,4.0421906,6.9113464,7.0966797c1.6554565,3.0544891,2.4933472,6.4796906,2.5136719,10.2730408 v1.9246216c0,3.8314362-0.8125,7.2642517-2.4273376,10.3009644c-1.6199341,3.0367279-3.9000244,5.4132843-6.8402405,7.1271515 c-2.9402466,1.7138672-6.2207031,2.5822296-9.8414001,2.6000061H366.9074707z M376.9977112,165.6355133v26.2919922h3.5039062 c2.8894653,0,5.113678-1.0283203,6.667572-3.0874939c1.5488281-2.0591736,2.3257751-5.1187439,2.3257751-9.1812439v-1.8103638 c0-4.0421753-0.776947-7.0865173-2.3257751-9.1380768c-1.553894-2.0490265-3.8136597-3.0748138-6.7843628-3.0748138H376.9977112z" class="st0"/></g><path d="M270.1263123,530.1248169c-142.0332336,0-260.0014954-117.9682312-260.0014954-259.9987793 c0-142.0332336,117.9682465-260.0012207,260.0014954-260.0012207c142.0305481,0,259.9985046,117.9679718,259.9985046,260.0012207 C530.1248169,412.1565857,412.1568604,530.1248169,270.1263123,530.1248169z" class="st1"/><path d="M270.1259155,459.7037964c-103.5635223,0-189.5800476-86.0165405-189.5800476-189.5780945 c0-103.5635071,86.0165329-189.579834,189.5800476-189.579834c103.561554,0,189.5778809,86.0163345,189.5778809,189.579834 C459.7037964,373.6872559,373.6874695,459.7037964,270.1259155,459.7037964z" class="st1"/><g><path d="M58.589119,215.9648132l-18.9363289-8.3636627l0.9902344-4.5373077l24.9996071,11.8040924 l-0.9496078,4.3748169l-20.3125,0.8251953l18.1085968,9.3005829l-0.954689,4.3951111l-27.6503906,0.3427734l0.9902344-4.5373077 l20.6679688,0.2183685l-18.6875-9.3310547l0.8378906-3.8339844L58.589119,215.9648132z" class="st0"/><path d="M67.0898972,190.7900085l-3.5394516,9.8160248l5.1593781,4.1843719l-1.6554718,4.5779266 l-21.8867188-18.7205048l1.4269562-3.9507904l28.8031235-0.4443359l-1.6605453,4.5957031L67.0898972,190.7900085z M60.4426346,198.0898132l2.6507797-7.3455048l-11.8371086-0.1218719L60.4426346,198.0898132z" class="st0"/><path d="M71.7059174,170.449585l-2.3207016,4.6769562l9.2828064,4.6033173l-2.0769501,4.1945343 L52.4547424,171.952713l4.2097664-8.4880981c1.3812523-2.7853394,3.0722656-4.6236267,5.0730476-5.5173798 s4.1843719-0.7541046,6.5507812,0.4189453c1.6148453,0.8023529,2.7726593,1.8611298,3.4734344,3.1814423 c0.705864,1.3177795,1.0054703,2.8209076,0.8988342,4.504303l12.7410126-0.4367218l0.2132797,0.1066437l-2.2242203,4.4916077 L71.7059174,170.449585z M66.0031815,173.4482117l2.1378937-4.3087921 c0.7007751-1.4167938,0.8937454-2.6964722,0.573822-3.8466797c-0.3148422-1.1501923-1.0917969-2.03125-2.3308563-2.6456909 c-1.2949219-0.6398468-2.4781265-0.7693481-3.5496101-0.3859406c-1.0714836,0.3859406-1.9804688,1.3000031-2.7269516,2.7498016 l-2.1937523,4.4255829L66.0031815,173.4482117z" class="st0"/><path d="M98.6199799,145.5159912l-2.5542984,3.9228516l-22.5722656-0.358017l16.0214844,10.4253998 l-2.5542984,3.9228516l-22.5824203-14.6935577l2.5542984-3.9253845l22.653511,0.370697l-16.0824203-10.4660187l2.533989-3.8923798 L98.6199799,145.5159912z" class="st0"/><path d="M104.9574814,137.6169586l-2.8742218,3.6714935l-21.2214813-16.6003952l2.8742142-3.6714859 L104.9574814,137.6169586z" class="st0"/><path d="M122.7359924,117.6726303l-3.1941376,3.4251938l-22.1710968-4.2503891l13.9800797,13.0330124 l-3.189064,3.4251862l-19.7081985-18.3726578l3.1941376-3.4226532l22.2472687,4.2732391l-14.0359421-13.083786 l3.1687546-3.3972626L122.7359924,117.6726303z" class="st0"/><path d="M139.8441925,98.3579788c0.0710907,1.5996094-0.3402252,3.2068329-1.2390594,4.8191376 c-0.9039001,1.6123047-2.1937561,3.1255875-3.8695374,4.5398483c-1.7316284,1.4523392-3.585144,2.3486328-5.5757751,2.6837845 c-1.9906235,0.3376999-3.9609375,0.0812531-5.9109344-0.7693329c-1.9500046-0.8505859-3.7578125-2.234375-5.423439-4.1564484 l-1.3558578-1.6123047c-2.6203156-3.1154251-3.9253922-6.1749954-3.9050827-9.1812439 c0.0152359-3.0062561,1.360939-5.6316452,4.0320358-7.8812561c2.2902298-1.9296875,4.5906219-2.8945312,6.9011688-2.8945312 c2.3054733,0.0025406,4.4941406,0.954689,6.5609436,2.8564453l-3.5089874,2.9554749 c-2.4882812-2.1480484-4.971489-2.1785202-7.454689-0.0888672c-1.6046906,1.3507767-2.3359375,2.9554672-2.1988297,4.8140564 c0.1371078,1.8560562,1.1324234,3.9152374,2.985939,6.1724625l1.3304672,1.5843735 c1.8738327,2.2267609,3.798439,3.5597687,5.7738266,3.9990234c1.9753952,0.4392624,3.798439-0.0431595,5.4691391-1.4497986 c1.828125-1.541214,2.7828217-3.0519562,2.8589935-4.5347672l-3.3972778-4.0345688l-4.2503815,3.5749969l-2.2851562-2.7167969 l7.8152313-6.5787125L139.8441925,98.3579788z" class="st0"/><path d="M136.0305176,80.4398117c0.6855469-0.4849548,1.3507843-0.6652298,1.9957123-0.5433578 c0.6499939,0.1244125,1.1781158,0.4773483,1.5945282,1.0613327c0.40625,0.5712891,0.5585938,1.1806641,0.4519501,1.8205032 c-0.1015625,0.6423874-0.4976501,1.2060547-1.183197,1.6910172c-0.6500092,0.4646454-1.3000031,0.6449203-1.9499969,0.5458984 c-0.644928-0.1015625-1.1730499-0.4443359-1.5894623-1.0257797c-0.4163971-0.5839844-0.573822-1.2009811-0.4773407-1.8535156 C134.9691925,81.4859085,135.3551331,80.9197006,136.0305176,80.4398117z M145.1254425,93.249382 c0.6855469-0.4849548,1.3507843-0.6652298,1.9957123-0.5433578c0.6499939,0.1244125,1.1781158,0.4773483,1.5945282,1.0613327 c0.40625,0.5712891,0.5585938,1.1806641,0.4519501,1.8205032c-0.1015625,0.6423874-0.4976501,1.2060547-1.183197,1.6910172 c-0.6500092,0.4646454-1.3000031,0.6449203-1.9500122,0.5458984c-0.6449127-0.1015625-1.1730347-0.4443359-1.589447-1.0257797 c-0.4164124-0.5839844-0.573822-1.2009811-0.4773407-1.8535156 C144.0641174,94.2929382,144.450058,93.7292709,145.1254425,93.249382z" class="st0"/><path d="M154.6723175,60.8864937l16.3312531,14.8382835l-2.5136719-21.91465l5.3878937-2.7574234 l12.2789001,23.9789047l-4.148819,2.1251984l-4.0472717-7.9040985l-5.0070343-10.7859421l2.3867188,22.1076202 l-2.9808502,1.5259781l-16.524231-14.8433609l5.8195343,10.3466797l4.0472717,7.9040985l-4.1488342,2.1251984 l-12.2839813-23.9789085L154.6723175,60.8864937z" class="st0"/><path d="M195.5359955,71.718132l-4.3468781,1.6935577l-9.785553-25.1011734l4.3468781-1.6935539 L195.5359955,71.718132z" class="st0"/><path d="M220.911377,63.6743851l-4.4941406,1.3126984l-16.8898315-14.9753952l5.3624878,18.3472672 l-4.4890594,1.3126984l-7.5613251-25.8578148l4.4890594-1.3152351l16.9507904,15.0363274l-5.3878937-18.4158211 l4.4585876-1.3050766L220.911377,63.6743851z" class="st0"/><path d="M230.9356079,61.8056335l-4.5703125,0.9089851l-5.2609406-26.4240227l4.5753937-0.9089851 L230.9356079,61.8056335z" class="st0"/><path d="M257.270752,58.3118858l-4.6515503,0.5128899L238.5883331,41.142746l2.0921936,18.9998016 l-4.6515656,0.5128937l-2.9554749-26.7794952l4.6566467-0.5128899l14.0765686,17.7505875l-2.1074219-19.0734367 l4.6210938-0.5078144L257.270752,58.3118858z" class="st0"/><path d="M282.8898926,54.8790741c-0.9953003,1.2542953-2.3613281,2.1962891-4.098053,2.8208961 c-1.7366943,0.6246109-3.7019348,0.9216805-5.8956909,0.8861351c-2.2597656-0.0380859-4.2503967-0.5814476-5.9718628-1.632618 c-1.7214966-1.0537109-3.0418091-2.5390625-3.9508057-4.461132c-0.9140625-1.9195328-1.3710938-4.1513672-1.3659973-6.6929703 l0.035553-2.1099625c0.0660095-4.0701141,1.0917969-7.2337875,3.0773315-9.4884758 c1.9855347-2.257225,4.7226562-3.3566399,8.2164001-3.3007793c2.9960938,0.0482407,5.3625183,0.8302727,7.1043091,2.3460941 c1.7417908,1.513279,2.7675781,3.6689453,3.0773315,6.4619141l-4.5855408-0.0736351 c-0.4671936-3.2525368-2.3207092-4.905468-5.5656128-4.9587898c-2.09729-0.0330048-3.7019653,0.6957054-4.8191528,2.1861343 c-1.1171875,1.4929695-1.7164001,3.6994133-1.8027344,6.6193352l-0.0304565,2.0693359 c-0.0507812,2.9097672,0.5281067,5.1771507,1.7316284,6.8046875c1.1984253,1.6275406,2.8894653,2.4603539,5.0730591,2.4958992 c2.3917847,0.0380859,4.1031189-0.4773445,5.1339722-1.5462875l0.0863342-5.2736359l-5.5503845-0.0888672l0.0558472-3.5521469 l10.2120972,0.1650391L282.8898926,54.8790741z" class="st0"/><path d="M308.9914551,52.571064c-0.6347656,2.8183594-1.9703064,4.9080086-4.0066223,6.2714844 c-2.0363464,1.3634758-4.5804749,1.8509789-7.6273499,1.4650383c-2.1328125-0.2716789-3.9406433-1.015625-5.4335938-2.2292938 c-1.492981-1.2162132-2.5644531-2.8107452-3.2093811-4.783596c-0.644928-1.9703102-0.8277283-4.1894531-0.5535278-6.6523438 l0.3199463-2.498436c0.3199158-2.5212898,1.0460815-4.6845703,2.1835938-6.492382 c1.1374817-1.8078156,2.6101379-3.1255875,4.4128723-3.9533234c1.8027344-0.8277321,3.7984314-1.1019516,5.9871216-0.8251953 c2.9503784,0.375782,5.2253723,1.4751968,6.8199158,3.3007812c1.5945435,1.8255882,2.3562622,4.2199249,2.2749939,7.1830101 l-4.6261597-0.5890617c0.0253906-1.947464-0.3554688-3.4048843-1.1476746-4.3697281 c-0.7921753-0.9648438-2.0566406-1.5589828-3.793335-1.7798843c-2.0211182-0.256443-3.6664124,0.2843781-4.9359436,1.6224632 s-2.0972595,3.4328117-2.4882812,6.2841797l-0.2996216,2.3714828c-0.3656311,2.8894539-0.132019,5.1593742,0.7109375,6.8097649 c0.8378906,1.6503906,2.2597656,2.6025391,4.2554626,2.8564453c1.8230591,0.2310562,3.2449341-0.0050774,4.265625-0.7083969 c1.0207214-0.7033195,1.7773438-1.9931641,2.2648621-3.8720703L308.9914551,52.571064z" class="st0"/><path d="M316.3039551,63.2402039l-4.5652161-0.9648438l5.5656128-26.3605461l4.5652466,0.9648438 L316.3039551,63.2402039z" class="st0"/><path d="M346.3359985,47.432003l-8.0589905-2.3587914l-6.5050659,22.237114l-4.4586182-1.3025436 l6.5050964-22.2371063l-7.992981-2.3359375l1.0562439-3.6232452l20.515625,5.9972687L346.3359985,47.432003z" class="st0"/><path d="M356.3246765,61.0820007l10.6132812-9.427536l4.7835693,1.9830055l-14.8535156,12.2738304 l-3.793335,9.1660156l-4.3417969-1.7976608l3.793335-9.1660156l-1.8484192-19.1902313l4.803894,1.9906235L356.3246765,61.0820007z" class="st0"/><path d="M364.1043396,74.9046555c0.7515869,0.3681641,1.2340088,0.8632812,1.4371338,1.4904327 c0.203125,0.6246109,0.1472473,1.2619171-0.1625061,1.9042969c-0.3046875,0.632225-0.7668152,1.0587921-1.3812561,1.2746124 c-0.609375,0.2183533-1.2949219,0.1421814-2.0464783-0.2234421c-0.7261658-0.347847-1.1984558-0.8302689-1.4168091-1.4472656 c-0.2234192-0.6144485-0.1777344-1.2441406,0.1320496-1.8865204c0.3097534-0.6449203,0.776947-1.0816422,1.3964844-1.3101578 C362.6773987,74.478096,363.3578796,74.5441132,364.1043396,74.9046555z" class="st0"/><path d="M391.2824707,85.4087601c-1.6960754,2.3359375-3.7476501,3.7273407-6.1597595,4.1742172 s-4.9410095-0.1117172-7.586731-1.6732407c-1.8484192-1.0917969-3.2195129-2.4908218-4.1081848-4.1970673 c-0.8886719-1.7087936-1.2441406-3.595314-1.051178-5.6595764c0.1878967-2.0667953,0.8937378-4.1767578,2.1226501-6.3324203 l1.2796936-2.1658173c1.289856-2.1886749,2.8183594-3.8873062,4.5753784-5.0984421 c1.7621155-1.2111282,3.6308594-1.8382797,5.6164246-1.8865204c1.9804688-0.0457039,3.9253845,0.4900398,5.8246155,1.6123047 c2.5593567,1.5132828,4.2148438,3.4226532,4.9562378,5.7306671c0.7464905,2.3080063,0.4925842,4.8064423-0.7515564,7.4953079 l-4.0117188-2.3689423c0.7921753-1.7824249,1.015625-3.2703171,0.6703186-4.4712906 c-0.3453369-1.1984406-1.2695312-2.2445297-2.7777405-3.1332016c-1.7570496-1.0359421-3.4785156-1.1882858-5.1746216-0.4621124 c-1.6960754,0.7261734-3.2906189,2.3207016-4.7734375,4.7861328l-1.2136536,2.0591812 c-1.4777527,2.5085907-2.1632996,4.6871109-2.0414124,6.5355453c0.1167908,1.8484421,1.0460815,3.2830124,2.7777405,4.3062515 c1.5792847,0.9343719,2.980835,1.279686,4.199585,1.038475c1.2136841-0.2412109,2.4172058-1.1273422,3.6105652-2.6609344 L391.2824707,85.4087601z" class="st0"/><path d="M414.6113892,97.8400116c-1.5945435,2.1023407-3.3617249,3.6689453-5.2964783,4.7023392 c-1.9296875,1.0334015-3.894928,1.4599609-5.890625,1.2822266c-1.9957275-0.1777344-3.8746338-0.9343719-5.6316528-2.2724609 c-1.7367249-1.3228455-2.9656372-2.9249954-3.6765747-4.8089828c-0.7160034-1.8839798-0.8429565-3.8923798-0.3909912-6.0277328 c0.4570312-2.1353531,1.4573975-4.2300797,3.0062256-6.2917938l0.9191589-1.2060547 c1.5945129-2.0921936,3.3667908-3.65625,5.3269348-4.6921921c1.9601746-1.0359344,3.9355469-1.4650345,5.9312744-1.2873001 c1.995697,0.1777344,3.8695068,0.9318314,5.616394,2.2597656c1.7468872,1.3304672,2.975769,2.927536,3.6867065,4.7962875 c0.7109375,1.8662109,0.8378906,3.8669891,0.3757935,6.0023422s-1.4878845,4.2529297-3.0671997,6.3527374L414.6113892,97.8400116z M411.7371521,93.8866882c1.8078308-2.3740234,2.7472839-4.5373001,2.8082275-6.4873047 c0.0660095-1.9499969-0.7261963-3.5521469-2.3714905-4.8089828c-1.6148376-1.2238312-3.3515625-1.5513687-5.2203064-0.9800797 c-1.8687744,0.5712891-3.6867371,2.0033188-5.4640808,4.2935562l-0.9394531,1.2365265 c-1.792572,2.3562469-2.7218628,4.5271454-2.7828064,6.5126953c-0.0558472,1.9830017,0.7261658,3.5953064,2.3562622,4.8369141 c1.6503906,1.2542953,3.3972473,1.5919876,5.2406006,1.0105438c1.8433838-0.5814438,3.6867371-2.0794907,5.5250244-4.4941406 L411.7371521,93.8866882z" class="st0"/><path d="M433.4156799,95.806221l-9.1355591,20.0839844l20.0941467-9.0923843l4.2757874,4.2859421 l-19.0785217,19.0226517l-3.2956848-3.3007812l6.2917786-6.2714844l8.7394714-8.0615234l-20.3226624,9.0238266 l-2.3613281-2.3714828l9.0796814-20.2667923l-8.0691528,8.7013626l-6.2917786,6.2714844l-3.2906189-3.3007812 l19.0784912-19.0226517L433.4156799,95.806221z" class="st0"/><path d="M441.2004395,145.3636475l-2.7828064-3.740036l21.6124878-16.0875092l2.7828369,3.740036 L441.2004395,145.3636475z" class="st0"/><path d="M457.8110046,157.8482208c1.0054626-0.6322327,1.553894-1.4701233,1.6503906-2.5162201 c0.1015625-1.0486298-0.1523438-2.6634674-0.7566528-4.8496094c-0.6043091-2.1835938-0.9089966-4.0345612-0.9191284-5.5453033 c-0.0050964-2.8996124,1.0410156-5.0095825,3.1382751-6.332428c1.8382874-1.1578064,3.823822-1.3634796,5.9566345-0.6169891 c2.1328125,0.7464752,3.9558716,2.3156281,5.4640503,4.7048798c1.0003967,1.5869141,1.5996094,3.1839905,1.7976685,4.7962952 c0.1980591,1.6097565-0.0203247,3.1103516-0.6550903,4.4992065c-0.6296692,1.3914185-1.6046753,2.5009766-2.9199219,3.3312531 l-2.4882812-3.945694c1.1933594-0.7490234,1.8890686-1.7113342,2.0921936-2.879303 c0.203125-1.1705017-0.1371155-2.4501953-1.0105286-3.8390656c-0.8175964-1.2923737-1.7265625-2.1226501-2.7269592-2.4908142 c-1.0054626-0.3656311-2.0058594-0.2361298-2.9960938,0.3884735c-0.8328247,0.5281219-1.2847595,1.3533173-1.3558655,2.4781189 c-0.071106,1.1222687,0.1878967,2.7371216,0.776947,4.8445435c0.5941467,2.1048737,0.8886719,3.907608,0.8937683,5.4082031 c0.0050659,1.4980469-0.269165,2.772644-0.8226624,3.823822c-0.5585938,1.051178-1.421875,1.9449158-2.5898438,2.6812439 c-1.899231,1.1984406-3.8644714,1.421875-5.9058533,0.6728516c-2.0414124-0.7490234-3.8441467-2.3689423-5.4183655-4.8623047 c-1.0410156-1.6503906-1.6910095-3.3566284-1.9500122-5.1238251c-0.2640686-1.7697296-0.0964661-3.3744049,0.4925842-4.8191376 c0.5941467-1.4447327,1.5996094-2.6177673,3.0316467-3.5191345l2.4984436,3.9609375 c-1.2949219,0.815033-2.0261841,1.8738251-2.1988525,3.1763611c-0.167572,1.3050842,0.2488403,2.7548828,1.254303,4.349411 c0.8683777,1.3787079,1.8027344,2.2369232,2.7980652,2.5796967 C455.9371643,158.546463,456.8969421,158.427124,457.8110046,157.8482208z" class="st0"/><path d="M489.0211487,184.46521l-3.4023438-7.6806641l-21.1808472,9.3843689l-1.8789062-4.2478485 l21.1808472-9.3818359l-3.3718872-7.6146545l3.4480591-1.5285034l8.6582031,19.5406189L489.0211487,184.46521z" class="st0"/><path d="M475.188324,216.9169617l-1.3812256-4.4509735l11.4105225-3.5521545l-3.5749817-11.5019531 l-11.4156189,3.5496216l-1.3914185-4.46875l25.725769-8.0031281l1.3914185,4.471283l-10.7046814,3.3287201l3.5749817,11.5044861 l10.7097778-3.3312531l1.3812561,4.4509735L475.188324,216.9169617z" class="st0"/><path d="M491.0371704,235.1195068l-2.0769653-10.8697357l-8.1402283,1.5539093l2.4222717,12.7054749 l-3.6714783,0.6982422l-3.3007812-17.3037109l26.4671631-5.0476532l3.2753906,17.1767578l-3.7070312,0.7083893 l-2.401947-12.5785065l-7.3074036,1.3939362l2.0769348,10.8697357L491.0371704,235.1195068z" class="st0"/><path d="M494.5410767,272.6290588c-2.640625,0.0939636-4.9714966-0.2818298-6.9925842-1.1222534 c-2.0261841-0.8404236-3.6004028-2.0896606-4.7277222-3.7476501c-1.1273499-1.6554871-1.7265625-3.5877075-1.8078308-5.7941589 c-0.0761719-2.1835938,0.3859558-4.1462708,1.3914185-5.893158c1.0054626-1.7443237,2.4781189-3.1179657,4.4179688-4.1183472 c1.9398499-1.0029297,4.194519-1.5539093,6.7742004-1.6580048l1.5133057-0.0558624 c2.6253662-0.0914154,4.9613037,0.289444,7.0027161,1.1501923c2.0464783,0.8582001,3.6308594,2.115036,4.7582092,3.7730408 s1.7265625,3.5826263,1.8078003,5.7763824c0.0761719,2.1962891-0.3808594,4.1589661-1.3761597,5.890625 c-0.9902344,1.7341614-2.4628906,3.0976562-4.4078064,4.0929565s-4.230072,1.5462952-6.8554688,1.6529236L494.5410767,272.6290588 z M495.7801208,267.8988037c2.9808655-0.1066589,5.2507935-0.7515564,6.7996216-1.9373169 c1.5488281-1.183197,2.2851562-2.81073,2.2140503-4.8825989c-0.0710754-2.0211182-0.9191284-3.5750122-2.5441284-4.6591797 c-1.625-1.0841827-3.8898315-1.5869293-6.7843628-1.5082092l-1.5539246,0.0558624 c-2.9605408,0.1066284-5.2253723,0.7642517-6.7995911,1.9753876c-1.5742188,1.2085876-2.3258057,2.8386536-2.2496338,4.8851624 c0.071106,2.0693359,0.9191589,3.6359253,2.5339966,4.6947021c1.6199341,1.0588074,3.9457092,1.5361328,6.977356,1.4269714 L495.7801208,267.8988037z" class="st0"/><path d="M479.8297424,298.4894104l0.4011841-4.6642456l20.0687256-10.3339844l-19.0480347-1.6300659 l0.4011841-4.6642761l26.8429565,2.2978516l-0.4011841,4.6642761l-20.1448975,10.3644409l19.1191406,1.6376953 l-0.3961182,4.6287231L479.8297424,298.4894104z" class="st0"/><path d="M481.7340393,308.6913757l-2.366394,11.9996033l-3.6664124-0.7236328l3.2753906-16.5927734 l26.4316406,5.2152405l-0.9089966,4.5931702L481.7340393,308.6913757z" class="st0"/><path d="M487.4266052,330.3165588l10.62854,9.4021606l-1.3914185,4.9917908l-13.9699097-13.2742004 l-9.5519714-2.6634827l1.2593689-4.5271606l9.5570374,2.6634827l18.8246155-4.1386719l-1.3964844,5.007019 L487.4266052,330.3165588z" class="st0"/><path d="M463.6965332,370.3271179l16.4937439,12.5125122l-2.0109253,4.1868896l-21.5972595-17.2630615 l1.9347534-4.0371094l19.9519653,3.8898315l-15.4679871-13.2335815l1.9449463-4.0523682l26.980072,6.0531311l-2.0109558,4.1869202 l-20.0585938-4.9892578l16.0265808,13.3986206l-1.7011719,3.5343933L463.6965332,370.3271179z" class="st0"/><path d="M453.6672363,397.2615051l6.0074158-9.2929688l-6.9620972-4.50177l-7.0230408,10.8621216l-3.1382751-2.028717 l9.5621033-14.792572l22.6281128,14.625l-9.4960938,14.6859131l-3.1687317-2.0490112l6.9519348-10.7529297l-6.2460938-4.0396423 l-6.0074158,9.2929688L453.6672363,397.2615051z" class="st0"/><path d="M440.6316833,394.9154053l20.9828186,16.8999939l-5.7941284,7.1906128 c-1.9093933,2.3740234-3.8390808,3.7958984-5.7890625,4.2681885c-1.9500122,0.4747925-3.8644714-0.0482483-5.7484436-1.5640869 c-0.9597778-0.7744141-1.6199341-1.7290955-1.9703064-2.8665771c-0.3504028-1.1375122-0.3351746-2.3765869,0.0507812-3.7171936 c-1.2238464,0.8861389-2.508606,1.2974548-3.8543091,1.2314453c-1.350769-0.0634766-2.6203003-0.5763855-3.8136597-1.5361328 c-1.9703064-1.5869141-2.9757996-3.4378967-3.011322-5.5503845c-0.0406494-2.1150513,0.8886719-4.3494263,2.7828064-6.703125 L440.6316833,394.9154053z M447.1621704,406.1863098l-6.5558777-5.28125l-3.2652283,4.0498047 c-0.9191284,1.1451111-1.3558655,2.2648315-1.3050842,3.3667908c0.0457153,1.0993958,0.5738525,2.0566406,1.5843811,2.8691406 c2.1835938,1.7544861,4.1945496,1.5386658,6.0379028-0.6525574L447.1621704,406.1863098z M449.8434143,408.3470459 l-2.879303,3.5724487c-0.9140625,1.1349792-1.3710938,2.2267761-1.3710938,3.2804871 c0,1.0511475,0.4722595,1.9576111,1.4117126,2.7167969c1.0359497,0.8353271,2.0261841,1.1425781,2.9605713,0.9241943 c0.9394531-0.2208862,1.9093628-0.9546814,2.9148254-2.2038879l2.8589783-3.5445251L449.8434143,408.3470459z" class="st0"/><path d="M420.7000427,427.7886353c0.8378906,0.8353577,1.7773438,1.1882935,2.8183594,1.051178 c1.0461121-0.1345825,2.5644531-0.7388611,4.5601807-1.8103638c2.0007629-1.0740051,3.7324219-1.7798767,5.210144-2.1201172 c2.8234253-0.6448975,5.113678-0.0914001,6.8656311,1.6630859c1.5386658,1.5335999,2.1784973,3.4252014,1.9195251,5.6697388 c-0.2589722,2.2470703-1.386322,4.3697205-3.382019,6.3654175c-1.3254089,1.3279419-2.7523499,2.2648621-4.2808838,2.8132935 c-1.5234375,0.5509644-3.0367126,0.6703186-4.5347595,0.3605347c-1.4929504-0.3097534-2.7929688-1.0130615-3.8898315-2.1124878 l3.2956848-3.2982483c0.9953308,0.9953308,2.0871277,1.4624939,3.2703247,1.4015808 c1.1882935-0.0609436,2.3613281-0.6728516,3.524231-1.8332214c1.0816345-1.0816345,1.6859131-2.1531067,1.8230286-3.2119141 c0.1371155-1.0587769-0.2132874-2.0033264-1.0410156-2.8335876c-0.6957092-0.6957092-1.5996094-0.9572144-2.7167969-0.776947 c-1.1120911,0.1777344-2.6253967,0.7896423-4.5499878,1.830658c-1.9246216,1.0435486-3.6156311,1.7316284-5.078125,2.066803 c-1.4624939,0.337677-2.7625122,0.3503723-3.9101562,0.0406189c-1.1476746-0.3097534-2.2089844-0.9546814-3.1890564-1.9296875 c-1.5843811-1.589447-2.2394714-3.4607544-1.9601746-5.6138611c0.2792969-2.1556702,1.4624939-4.2732544,3.5445251-6.3578186 c1.3812561-1.3787231,2.8996277-2.3917847,4.5652466-3.0367126s3.2703247-0.8404236,4.8089905-0.5814514 c1.5386658,0.2564392,2.9097595,0.982605,4.1031189,2.1785278l-3.3109436,3.3109131 c-1.0816345-1.0841675-2.2749939-1.5640564-3.585144-1.4396362c-1.3101501,0.1218872-2.6304626,0.8505859-3.9660339,2.1835938 c-1.147644,1.1527405-1.7824097,2.2496033-1.8941345,3.2982483 C419.6031799,426.112854,419.9332581,427.0193176,420.7000427,427.7886353z" class="st0"/><path d="M405.7348328,431.7851257l3.5445251-3.0341797l17.5195312,20.4699097l-3.5445251,3.0316467 L405.7348328,431.7851257z" class="st0"/><path d="M400.1488953,465.1382446l6.7742004-4.9714661l-13.7058411-18.6748047l3.7425537-2.7498169 l13.7058716,18.6773376l6.7132874-4.9257812l2.234375,3.0418091l-17.230072,12.6470642L400.1488953,465.1382446z" class="st0"/><path d="M376.2461548,466.4052429l9.546875-5.5935669l-4.1894531-7.1525269l-11.1617126,6.5406189 l-1.8890686-3.2246094l15.198822-8.9095764l13.6195374,23.2451172l-15.0820312,8.8410339l-1.9093933-3.2550964 l11.0449219-6.4771423l-3.7578125-6.4161987l-9.546875,5.5960999L376.2461548,466.4052429z" class="st0"/><path d="M342.1008301,482.243927c-0.9699097-2.4552917-1.3964844-4.7785339-1.2796936-6.9671936 c0.1168213-2.1886902,0.7668152-4.0904236,1.9500122-5.7052917c1.1882935-1.6148376,2.808197-2.8284912,4.8597717-3.6409912 c2.03125-0.8023682,4.0371094-1.0207214,6.0175781-0.6576233c1.9804688,0.3630676,3.7679749,1.2923889,5.3574219,2.7878723 c1.5945129,1.492981,2.8691406,3.4353638,3.8288879,5.8297119l0.5585938,1.4091797 c0.9648438,2.4450989,1.3812561,4.7734375,1.254303,6.9849548s-0.7820129,4.1259766-1.9652405,5.7408142 c-1.1882629,1.6173706-2.7980347,2.8285217-4.8445129,3.6359253c-2.0414124,0.8074341-4.0422058,1.0308838-6.0074158,0.6728516 c-1.9652405-0.3554688-3.7425842-1.2847595-5.3320312-2.7878723c-1.5894775-1.5005798-2.8691406-3.4709167-3.8492432-5.9084167 L342.1008301,482.243927z M346.9707642,481.8300476c1.0968628,2.7752075,2.4628906,4.6972656,4.098053,5.7611389 c1.6351318,1.0664062,3.417572,1.21875,5.3421631,0.4570312c1.8840027-0.7439575,3.0621338-2.06427,3.5394592-3.9558716 c0.477356-1.8941345,0.1980591-4.194519-0.8429565-6.8986206l-0.573822-1.4472656 c-1.086731-2.7523499-2.4628906-4.669342-4.133606-5.7484436c-1.6656189-1.0791016-3.4480591-1.2416077-5.352356-0.4874878 c-1.9296875,0.7617188-3.1230469,2.0820312-3.5800781,3.9609375s-0.1269531,4.2275391,0.9851685,7.0509644 L346.9707642,481.8300476z" class="st0"/><path d="M321.3820801,486.6238098l10.4609375-2.8564453l-3.011322-11.0144653l4.5195312-1.2339783 l7.0992126,25.9898376l-16.5140686,4.5093689l-0.9953003-3.6410217l11.9945374-3.2753906l-2.1074219-7.7288818 l-10.4609375,2.8564453L321.3820801,486.6238098z" class="st0"/><path d="M301.4504395,506.0171509l-9.7550659-19.7919922l-5.6925964,21.3103638l-6.022644,0.5915833 l-2.6355591-26.8125l4.6363525-0.4544678l0.8734131,8.8384705l0.7008057,11.8675842l5.8855286-21.4398499l3.3312683-0.3275452 l9.9328003,19.8656311l-1.6199341-11.7583923l-0.8734131-8.8410339l4.6413879-0.4544983l2.640625,26.8125L301.4504395,506.0171509 z" class="st0"/><path d="M267.2746582,480.9515381l4.6617126,0.0761719l-0.4367065,26.9369202l-4.6617126-0.0761719 L267.2746582,480.9515381z" class="st0"/><path d="M240.5688019,479.2097473l4.6617279,0.4138489l10.2730408,20.1017761l1.6910095-19.0404358 l4.6617126,0.4164124l-2.3867188,26.8353271l-4.6617126-0.4138489l-10.2984314-20.180481l-1.7011719,19.1140747 l-4.6261749-0.4113464L240.5688019,479.2097473z" class="st0"/><path d="M230.7324829,477.3384399l4.5906219,0.8125l-4.6972656,26.5281372l-4.5906219-0.8125L230.7324829,477.3384399 z" class="st0"/><path d="M204.7832642,470.9857178l4.5195312,1.216217l6.632019,21.5769348l4.9664154-18.4589844l4.5195312,1.216217 l-6.9976654,26.0177612l-4.5195312-1.2161865l-6.6472626-21.6582031l-4.9867096,18.5300598l-4.4839935-1.2085876 L204.7832642,470.9857178z" class="st0"/><path d="M179.7734985,464.9148254c1.3812408-0.8125,2.9960938-1.1984558,4.8445282-1.1552734 c1.8433533,0.0431519,3.7832031,0.4747925,5.8195343,1.2999878c2.0921783,0.848053,3.7527313,2.0718689,4.9816284,3.6740112 c1.2289124,1.6021729,1.9195404,3.4632874,2.0769653,5.5834045c0.1624908,2.1226501-0.2183685,4.3671875-1.1375122,6.736145 l-0.7921753,1.9550781c-1.5285187,3.7730408-3.6257935,6.3552551-6.2918091,7.7441406 c-2.6660156,1.388855-5.616394,1.4269409-8.8511658,0.1167908c-2.7777405-1.1248169-4.707428-2.7066345-5.7839813-4.7480469 c-1.0765686-2.0388794-1.2593842-4.4179688-0.5433655-7.1372986l4.2554779,1.7240295 c-0.7363281,3.2017517,0.3960876,5.4107361,3.4023438,6.6294861c1.9449158,0.7871094,3.7070312,0.6855469,5.2863159-0.3046875 c1.5742188-0.9902344,2.9300842-2.8310547,4.0625-5.5249939l0.7769623-1.9169922 c1.0917969-2.6965027,1.3710938-5.0197449,0.8378906-6.97229c-0.5332031-1.9525146-1.8128967-3.3363037-3.8390656-4.1564331 c-2.2140656-0.8988342-3.9964905-1.0359497-5.3421936-0.408783l-1.9804688,4.8876953l5.1441498,2.0845642l-1.3304749,3.2931519 l-9.4707031-3.8339844L179.7734985,464.9148254z" class="st0"/><path d="M154.7129517,457.4448853c1.625-2.3892517,3.6308594-3.8441467,6.0277252-4.3646545 c2.3968811-0.5205078,4.9410248-0.0406189,7.6374969,1.4371338c1.8789062,1.0333862,3.2906342,2.3892517,4.2351685,4.0675659 c0.944519,1.6783142,1.350769,3.5546875,1.2288971,5.6240234c-0.1269531,2.0718689-0.7667999,4.2021484-1.9296875,6.3933716 l-1.2085876,2.2064209c-1.2238312,2.2267761-2.6964874,3.9736328-4.4179688,5.2380981s-3.5749969,1.9500122-5.5554657,2.0591736 c-1.9804688,0.1091919-3.9355469-0.3681641-5.8753967-1.4320374c-2.605072-1.4294739-4.3113251-3.2880859-5.1289062-5.5706787 c-0.8125-2.2851562-0.6398468-4.7912292,0.5179749-7.5181885l4.0878906,2.2445374 c-0.7363281,1.8052673-0.9140625,3.3007812-0.5332031,4.4890747c0.3808594,1.1882629,1.3406219,2.2038879,2.8742065,3.046875 c1.7875061,0.980072,3.5140686,1.0816345,5.1847687,0.3021545c1.6757812-0.7795105,3.2144623-2.4222717,4.6210938-4.9334106 l1.1527405-2.0947266c1.4015656-2.5542908,2.0109406-4.7531128,1.8382721-6.5964966 c-0.1777344-1.8433533-1.147644-3.25-2.9097595-4.2173767c-1.6097717-0.8835754-3.0214844-1.1882629-4.230072-0.9089661 c-1.2086029,0.2792969-2.3867188,1.2034912-3.5292969,2.772644L154.7129517,457.4448853z" class="st0"/><path d="M151.7016144,444.7470398l3.8898468,2.5746155l-14.863678,22.4707031l-3.8898315-2.5746155 L151.7016144,444.7470398z" class="st0"/><path d="M118.0793533,448.5353088l6.642189,5.146698l14.1882782-18.3117371l3.6714783,2.84375l-14.1882782,18.3117371 l6.5812531,5.1009827l-2.3156281,2.9833984l-16.8898392-13.0914307L118.0793533,448.5353088z" class="st0"/><path d="M113.6563034,432.0694885l-13.3249969,4.8953247l-3.7324219-3.5953064l18.3167953-5.9947205 l6.8808594-7.142395l3.3820343,3.2601624l-6.8808594,7.1423645l-5.2914047,18.5377197l-3.7476578-3.6080322 L113.6563034,432.0694885z" class="st0"/><path d="M96.8680267,407.5142212l7.9472656-6.06073l2.8386688,3.7222595l-21.4195328,16.3439331l-6.2511673-8.1935425 c-1.828125-2.3917847-2.6507797-4.7683716-2.4781265-7.1271362c0.1726532-2.3587952,1.2847672-4.3215027,3.3363266-5.888092 c2.0972672-1.6021423,4.2605515-2.1607361,6.4796906-1.6757812c2.2191391,0.4874878,4.2757797,1.9703064,6.1699219,4.4535217 L96.8680267,407.5142212z M93.8668518,409.8044739l-3.4124985-4.4713135 c-1.0105438-1.3228455-2.092186-2.0972595-3.2449188-2.3181458c-1.1527405-0.2209167-2.3207092,0.1193237-3.4937515,1.015625 c-1.157814,0.8835754-1.8128891,1.9423828-1.9652328,3.1763611s0.2335892,2.4755859,1.1527328,3.7247925l3.4937515,4.5754089 L93.8668518,409.8044739z" class="st0"/><path d="M79.5363846,383.0351257l2.6863251,4.471283l8.8816452-5.3396301l2.4121094,4.0117188l-23.0851593,13.8861084 l-4.8851547-8.1199036c-1.6046867-2.6634827-2.2394524-5.080658-1.9144516-7.2464905 c0.3249969-2.1683655,1.6148453-3.9330139,3.8796844-5.2939453c1.5437546-0.9292908,3.0621109-1.3355408,4.5550766-1.216217 c1.4878922,0.1193542,2.9148483,0.6753845,4.2757874,1.6707153l6.4949188-10.96875l0.2082062-0.1244202l2.5847626,4.298645 L79.5363846,383.0351257z M78.9879456,389.4513245l-2.4781265-4.1208801 c-0.8125-1.3533325-1.792572-2.2064514-2.9300766-2.5568542c-1.1374969-0.3503723-2.3003922-0.170105-3.4835892,0.5408325 c-1.2390671,0.7439575-1.9855499,1.6707153-2.2394562,2.7802734s0.0304718,2.3689575,0.8480453,3.7781372l2.5441437,4.232605 L78.9879456,389.4513245z" class="st0"/><path d="M61.2957611,352.0027161c2.4070282-1.0892639,4.7023392-1.6326294,6.8960953-1.625 c2.1886673,0.0075989,4.123436,0.5636597,5.794136,1.6681519c1.6757812,1.1019592,2.9656296,2.6609497,3.8796921,4.669342 c0.9039001,1.9906311,1.21875,3.9812317,0.9546814,5.9794922c-0.264061,1.995697-1.1019516,3.826355-2.5136719,5.4894409 c-1.4117126,1.6656189-3.2906189,3.0341797-5.6316376,4.1132812l-1.3863297,0.6271667 c-2.3917923,1.0841675-4.6921844,1.6199036-6.9113274,1.6021423c-2.2140617-0.0152283-4.1589851-0.5763855-5.8347664-1.6808777 c-1.6707001-1.1019287-2.9605446-2.6533203-3.8695297-4.6540833c-0.9039078-1.9982605-1.2289047-3.9888611-0.9699211-5.9693298 s1.0968742-3.8009949,2.5187492-5.4615479c1.421875-1.6605225,3.3261719-3.0392456,5.7128906-4.1386719L61.2957611,352.0027161z M61.9508362,356.847229c-2.7167969,1.2339783-4.5652313,2.6939392-5.5503883,4.3798828 c-0.9800797,1.6859436-1.046093,3.4734497-0.1878929,5.3599548c0.8378906,1.8408203,2.2140656,2.9554749,4.1285172,3.3388672 c1.9144516,0.3834229,4.1945343-0.0126953,6.845314-1.1882629l1.4167938-0.642395 c2.6964874-1.2238159,4.5398483-2.6939392,5.5351562-4.4128723c0.9953156-1.7189636,1.0714874-3.5115356,0.2234421-5.3752136 c-0.8582077-1.8865051-2.234375-3.011322-4.1335983-3.3769531c-1.8992157-0.3630676-4.2300797,0.0812683-6.9925766,1.3355408 L61.9508362,356.847229z" class="st0"/><path d="M42.6082611,340.8638306l-1.4574242-4.4306641l17.9511719-5.888092 c2.4527359-0.8048706,4.6464844-0.6779175,6.591404,0.3783264c1.9449234,1.0562439,3.3261719,2.8386841,4.1488342,5.3472595 c0.8785095,2.6711121,0.8835907,4.9562683,0.0101547,6.8529358c-0.8683624,1.8941345-2.5085983,3.2373047-4.9105453,4.0244141 l-1.4523468-4.4306641c1.360939-0.4443359,2.2699203-1.1171875,2.7371063-2.0160217 c0.4621124-0.8988037,0.4875031-1.9880676,0.0660172-3.2652283c-0.3910141-1.1958923-1.1019516-2.0185547-2.1226578-2.4679565 c-1.0257797-0.4494324-2.2343712-0.4443359-3.6308556,0.0126953L42.6082611,340.8638306z" class="st0"/><path d="M50.3168526,310.5906067l2.3968773,10.8037109l8.0945282-1.7951355l-2.8031235-12.6267395l3.6511726-0.809967 l3.8136711,17.197052l-26.2996101,5.8347778l-3.7882805-17.0701294l3.686718-0.8175659l2.7726555,12.4998169l7.2617188-1.6097717 l-2.3968735-10.8037109L50.3168526,310.5906067z" class="st0"/><path d="M50.1137276,283.3946838c2.8843765-0.0482178,5.2304688,0.7566528,7.0382805,2.4172058 c1.8027344,1.660553,2.8792992,4.0167847,3.219532,7.0712891c0.233593,2.1328125-0.060936,4.0675659-0.8886719,5.8042908 c-0.8328133,1.7392578-2.1277351,3.1509705-3.8949203,4.2427673c-1.767189,1.0892639-3.8796883,1.792572-6.3375015,2.102356 l-2.5035133,0.2792969c-2.5238304,0.2818298-4.7988281,0.0837708-6.8250008-0.5966797 c-2.0210953-0.680481-3.6511726-1.8002014-4.8800774-3.3566589c-1.2289085-1.55896-1.9652367-3.4328003-2.2089844-5.6290894 c-0.3300781-2.9529419,0.203125-5.4208984,1.6046867-7.4013672c1.3964844-1.9804688,3.544529-3.28302,6.4441414-3.9025269 l0.5179672,4.6337891c-1.8992195,0.4341736-3.2246094,1.150177-3.9761734,2.1480408 c-0.7515602,0.9953003-1.0308571,2.3638611-0.8378906,4.1056519c0.2234383,2.0210876,1.1375008,3.4937439,2.7371101,4.4129028 c1.5996094,0.9216614,3.828907,1.2339783,6.6929703,0.9394531l2.3765602-0.2640686 c2.8945312-0.3250122,5.0425797-1.0892639,6.4492188-2.2953186c1.4066429-1.2035217,2.000782-2.8056641,1.7773438-4.803894 c-0.203125-1.828125-0.7667961-3.1560669-1.6910133-3.9837952c-0.924221-0.8277283-2.3562508-1.2568359-4.296093-1.289856 L50.1137276,283.3946838z" class="st0"/><path d="M35.3922424,260.1191101l0.1320343,8.399231l23.1664047-0.3757935l0.0761719,4.6439514l-23.1664047,0.3757629 l0.1371078,8.325592l-3.7730465,0.0609436l-0.3503914-21.3687439L35.3922424,260.1191101z" class="st0"/></g><polygon points="200.146 344.694 260.297 430.672 373.915 268.357 349.863 268.357 260.3 396.302 224.195 344.694" class="st2"/><g><path d="M171.9785767,306.8480225c0,4.1412048-0.7667999,7.8050842-2.3003998,10.9941406 c-1.5386658,3.1890564-3.7171783,5.6443176-6.5457001,7.3632812c-2.8285217,1.7214661-6.0531311,2.5822144-9.6687469,2.5822144 c-3.6156311,0-6.8249969-0.8327942-9.6230469-2.4933472c-2.8031311-1.6630859-4.9816437-4.0396423-6.5457001-7.1296997 c-1.5691528-3.0925598-2.3867188-6.6396484-2.4679718-10.6462708v-2.3918152 c0-4.1589661,0.7617188-7.8279114,2.2902374-11.0068359c1.5285034-3.178894,3.7120972-5.6341858,6.5609283-7.3632812 c2.8488312-1.7316284,6.0886688-2.5974426,9.7246094-2.5974426c3.6003876,0,6.8046875,0.8556519,9.6230469,2.5669861 c2.8234406,1.7113342,5.0121155,4.1462708,6.5761719,7.3048706c1.5691376,3.1611328,2.3613281,6.7818298,2.3765717,10.8646545 V306.8480225z M161.5684204,305.0706787c0-4.2199402-0.7007904-7.4242249-2.1125031-9.6103516 c-1.4117279-2.1861267-3.4277344-3.2804871-6.0531311-3.2804871c-5.1289062,0-7.8406219,3.8492432-8.1351471,11.5476685 l-0.0304718,3.1205139c0,4.1615295,0.6906281,7.3581848,2.0718689,9.5951233 c1.3812561,2.234375,3.4328156,3.3540955,6.1546936,3.3540955c2.5847626,0,4.5753937-1.0994263,5.976944-3.2957153 c1.4015656-2.1962891,2.1074219-5.3574219,2.1277466-9.478302V305.0706787z" class="st0"/><path d="M193.0375519,312.1851196h-5.5453033v15.0185547h-10.2324219v-42.4607239h16.7070312 c5.0374908,0,8.9730377,1.1171875,11.8117065,3.3515625c2.8386841,2.2318115,4.2605591,5.3878784,4.2605591,9.4656067 c0,2.9529419-0.5992279,5.4006042-1.7976685,7.3429871c-1.1933594,1.9423828-3.0671844,3.5140381-5.6113281,4.7175598 l8.8664093,17.1463013v0.4367065h-10.96875L193.0375519,312.1851196z M187.4922485,304.3114929h6.4746094 c1.9449158,0,3.4074097-0.5103455,4.3925781-1.5361328c0.980072-1.0232544,1.4726562-2.4501953,1.4726562-4.2808533 c0-1.8332214-0.4976654-3.2703247-1.4878998-4.3138733c-0.9953156-1.0410156-2.4527283-1.5640564-4.3773346-1.5640564h-6.4746094 V304.3114929z" class="st0"/><path d="M227.1270142,327.2036743h-10.2019653v-42.4607239h10.2019653V327.2036743z" class="st0"/><path d="M269.0012207,321.9554443c-1.5742188,1.7494202-3.8796692,3.1585999-6.9113159,4.2275391 s-6.3578186,1.6046753-9.9734497,1.6046753c-5.5605469,0-10.0039062-1.7011719-13.3249969-5.1035156 c-3.3261719-3.4023438-5.1035156-8.1376953-5.3371124-14.2035217l-0.0304565-3.6740112 c0-4.1792908,0.7363281-7.8304749,2.2140503-10.9509888c1.4777374-3.1204834,3.5953217-5.5198975,6.3425903-7.2033081 c2.7523346-1.6808472,5.9363251-2.5213013,9.5519409-2.5213013c5.2863464,0,9.3945312,1.2111511,12.3195496,3.6308594 c2.9300537,2.4197388,4.636322,6.0328369,5.1187439,10.834198h-9.8566589 c-0.3503723-2.3714905-1.1070251-4.065033-2.2749939-5.075592c-1.1628876-1.0105591-2.8183594-1.5158081-4.9562378-1.5158081 c-2.5644531,0-4.5500031,1.0892334-5.9464874,3.2652283c-1.4015656,2.1784973-2.1125031,5.2888489-2.1328125,9.3335876v2.5644531 c0,4.2402344,0.7261658,7.4242249,2.1734314,9.5519409c1.4472656,2.1277466,3.7273407,3.1941528,6.8402405,3.1941528 c2.6609344,0,4.6464691-0.5941467,5.9464874-1.7798767v-6.5914001h-7.1144562v-7.0281372h17.351944V321.9554443z" class="st0"/><path d="M285.8555298,327.2036743h-10.2019653v-42.4607239h10.2019653V327.2036743z" class="st0"/><path d="M328.4356079,327.2036743h-10.1765747L303.207489,300.782196v26.4214783h-10.2324219v-42.4607239h10.2324219 l15.0210876,26.4214783v-26.4214783h10.2070312V327.2036743z" class="st0"/><path d="M359.5543518,319.271637h-14.0257874l-2.4527283,7.9320374h-10.933197l15.569519-42.4607239h9.6230469 l15.6914062,42.4607239h-10.9941406L359.5543518,319.271637z M347.9762268,311.3675537h9.1304626l-4.5804749-14.7265625 L347.9762268,311.3675537z" class="st0"/><path d="M386.3516235,319.3300476h17.8191223v7.8736267h-28.0515442v-42.4607239h10.2324219V319.3300476z" class="st0"/></g></g></svg>