<?xml version="1.0" encoding="iso-8859-1"?>
<!-- Generator: Adobe Illustrator 25.0.1, SVG Export Plug-In . SVG Version: 6.00 Build 0)  -->
<svg version="1.1" id="step_03" xmlns="http://www.w3.org/2000/svg" xmlns:xlink="http://www.w3.org/1999/xlink" x="0px" y="0px"
	 viewBox="0 0 700 700" style="enable-background:new 0 0 700 700;" xml:space="preserve">
<linearGradient id="SVGID_1_" gradientUnits="userSpaceOnUse" x1="438.1039429" y1="250.6002655" x2="538.0396729" y2="250.6002655" gradientTransform="matrix(1 0 0 -1 0 700.1102295)">
	<stop  offset="0" style="stop-color:#FFFFFF"/>
	<stop  offset="1" style="stop-color:#28AAFF"/>
</linearGradient>
<rect x="438.1039429" y="398.8834839" style="opacity:0.4;fill:url(#SVGID_1_);enable-background:new    ;" width="99.93573" height="101.2529602"/>
<g>
	<g>
		
			<linearGradient id="SVGID_2_" gradientUnits="userSpaceOnUse" x1="190.741806" y1="340.3874207" x2="628.9969482" y2="340.3874207" gradientTransform="matrix(1 0 0 -1 0 700.1102295)">
			<stop  offset="0" style="stop-color:#ABDEFF"/>
			<stop  offset="1" style="stop-color:#28AAFF"/>
		</linearGradient>
		<polygon style="fill:url(#SVGID_2_);" points="333.5615234,326.2382507 538.0396729,428.8561096 609.3209839,393.2073975 
			404.8428955,290.5895386 		"/>
	</g>
	
		<linearGradient id="SVGID_3_" gradientUnits="userSpaceOnUse" x1="329.1408081" y1="286.9228821" x2="744.5187988" y2="286.9228821" gradientTransform="matrix(1 0 0 -1 0 700.1102295)">
		<stop  offset="0" style="stop-color:#28AAFF"/>
		<stop  offset="1" style="stop-color:#0983E2"/>
	</linearGradient>
	<polygon style="fill:url(#SVGID_3_);" points="333.5615234,397.5196228 538.0396729,500.1364746 538.0396729,428.8561096 
		333.5615234,326.2382507 	"/>
	
		<linearGradient id="SVGID_4_" gradientUnits="userSpaceOnUse" x1="573.6802979" y1="213.0652771" x2="573.6802979" y2="388.4950562" gradientTransform="matrix(1 0 0 -1 0 700.1102295)">
		<stop  offset="0" style="stop-color:#28AAFF"/>
		<stop  offset="1" style="stop-color:#ABDEFF"/>
	</linearGradient>
	<polygon style="fill:url(#SVGID_4_);" points="538.0396729,500.1364746 609.3209839,464.4887695 609.3209839,393.2073975 
		538.0396729,428.8561096 	"/>
</g>
<g>
	<g>
		
			<linearGradient id="SVGID_5_" gradientUnits="userSpaceOnUse" x1="190.46492" y1="441.6403809" x2="628.7200928" y2="441.6403809" gradientTransform="matrix(1 0 0 -1 0 700.1102295)">
			<stop  offset="0" style="stop-color:#ABDEFF"/>
			<stop  offset="1" style="stop-color:#28AAFF"/>
		</linearGradient>
		<polygon style="fill:url(#SVGID_5_);" points="333.2846069,224.9852753 537.7627563,327.6031189 609.0441284,291.9544067 
			404.565979,189.3365784 		"/>
	</g>
	
		<linearGradient id="SVGID_6_" gradientUnits="userSpaceOnUse" x1="328.8638916" y1="388.1758423" x2="744.2418823" y2="388.1758423" gradientTransform="matrix(1 0 0 -1 0 700.1102295)">
		<stop  offset="0" style="stop-color:#28AAFF"/>
		<stop  offset="1" style="stop-color:#0983E2"/>
	</linearGradient>
	<polygon style="fill:url(#SVGID_6_);" points="333.2846069,296.2666626 537.7627563,398.8834839 537.7627563,327.6031189 
		333.2846069,224.9852753 	"/>
	
		<linearGradient id="SVGID_7_" gradientUnits="userSpaceOnUse" x1="573.4034424" y1="314.3182373" x2="573.4034424" y2="489.7480164" gradientTransform="matrix(1 0 0 -1 0 700.1102295)">
		<stop  offset="0" style="stop-color:#28AAFF"/>
		<stop  offset="1" style="stop-color:#ABDEFF"/>
	</linearGradient>
	<polygon style="fill:url(#SVGID_7_);" points="537.7627563,398.8834839 609.0441284,363.2357788 609.0441284,291.9544067 
		537.7627563,327.6031189 	"/>
</g>
<g>
	<g>
		
			<linearGradient id="SVGID_8_" gradientUnits="userSpaceOnUse" x1="431.2167053" y1="380.5997925" x2="431.2167053" y2="454.8179626" gradientTransform="matrix(1 0 0 -1 0 700.1102295)">
			<stop  offset="0" style="stop-color:#FFE075"/>
			<stop  offset="1" style="stop-color:#FFF2C7"/>
		</linearGradient>
		<path style="fill:url(#SVGID_8_);" d="M431.21698,249.21875c-18.3264771-9.1652222-33.1828613-1.7386932-33.1828613,16.5873413
			c0,18.3265381,14.8563843,40.6124268,33.1828613,49.7778931c18.3259277,9.1652527,33.182312,1.7384644,33.182312-16.5880432
			C464.399292,280.6699219,449.5429077,258.3839722,431.21698,249.21875z"/>
	</g>
	<path style="fill:#616385;" d="M441.0333862,290.7519836c-0.927063-1.731781-2.2404175-3.2540283-3.9368286-4.5586853
		c1.4968262,0.1152344,2.6323242-0.2098999,3.4089355-0.9742432c0.7757568-0.7615662,1.1652222-1.8601685,1.1652222-3.3006592
		c0-2.8134766-0.9278564-5.3977661-2.7843628-7.7435913c-1.2819824-1.6203308-2.9779663-3.1008301-5.0699463-4.4469299v-5.2740479
		l-3.4507446-1.7185669v5.0610352l-3.4539185-1.7201843v-5.0610352l-3.4507446-1.7185669v5.0610352l-3.4547729-1.7205505v31.3822937
		l3.4547729,1.7205811v4.5465698l3.4507446,1.7185669v-4.5465698l3.4539185,1.7201538v4.5465698l3.4507446,1.7185669v-4.6820068
		c2.4005737,0.9109497,4.3271484,1.1272583,5.7716675,0.6376953c1.8919678-0.6333008,2.8391113-2.4292297,2.8391113-5.3737183
		C442.4271851,294.2435303,441.9636841,292.4853821,441.0333862,290.7519836z M436.2338867,279.5161438
		c0,1.4083557-0.4796143,2.2562866-1.4356689,2.5486145c-0.9560547,0.2923584-2.2822266,0.0177002-3.9818726-0.8287354
		l-5.3467407-2.6628113v-8.8166199l5.3040771,2.641571c1.8710327,0.9318237,3.2487793,1.9620056,4.1339722,3.0941772
		C435.7929077,276.6213074,436.2338867,277.9598999,436.2338867,279.5161438z M435.5450439,296.1311035
		c-0.9656982,0.3679199-2.3015747,0.1270142-4.0140991-0.7258301l-6.0613403-3.0187073v-9.8069763l6.5152588,3.244751
		c3.3348389,1.7315979,5.0054932,4.2324219,5.0054932,7.4936523
		C436.9903564,294.8259888,436.5075073,295.7647705,435.5450439,296.1311035z"/>
</g>
<g>
	<g>
		
			<linearGradient id="SVGID_9_" gradientUnits="userSpaceOnUse" x1="431.2167053" y1="461.671936" x2="431.2167053" y2="535.8900757" gradientTransform="matrix(1 0 0 -1 0 700.1102295)">
			<stop  offset="0" style="stop-color:#FFE075"/>
			<stop  offset="1" style="stop-color:#FFF2C7"/>
		</linearGradient>
		<path style="fill:url(#SVGID_9_);" d="M431.21698,168.1466217c-18.3264771-9.1652222-33.1828613-1.7386932-33.1828613,16.587326
			c0,18.3265228,14.8563843,40.6124573,33.1828613,49.7779236c18.3259277,9.1652222,33.182312,1.7384491,33.182312-16.5880737
			C464.399292,199.5977631,449.5429077,177.3118286,431.21698,168.1466217z"/>
	</g>
	<path style="fill:#616385;" d="M441.0333862,209.6798553c-0.927063-1.7317963-2.2404175-3.2540283-3.9368286-4.5586853
		c1.4968262,0.1152344,2.6323242-0.2099152,3.4089355-0.9742737c0.7757568-0.7615356,1.1652222-1.8601532,1.1652222-3.3006439
		c0-2.8134766-0.9278564-5.3977509-2.7843628-7.7435608c-1.2819824-1.6203613-2.9779663-3.1008453-5.0699463-4.4469452v-5.2740631
		l-3.4507446-1.7185669v5.0610352l-3.4539185-1.7201538v-5.0610352l-3.4507446-1.7185669v5.0610352l-3.4547729-1.7205811v31.3822937
		l3.4547729,1.7205658v4.5465851l3.4507446,1.7185516v-4.5465698l3.4539185,1.7201691v4.5465698l3.4507446,1.7185669v-4.6820221
		c2.4005737,0.9109802,4.3271484,1.1273041,5.7716675,0.6377106c1.8919678-0.6332855,2.8391113-2.4292297,2.8391113-5.3737335
		C442.4271851,213.171402,441.9636841,211.4132385,441.0333862,209.6798553z M436.2338867,198.4440155
		c0,1.4083405-0.4796143,2.2562714-1.4356689,2.5486298c-0.9560547,0.2923431-2.2822266,0.0177002-3.9818726-0.8287659
		l-5.3467407-2.6628113v-8.8166199l5.3040771,2.641571c1.8710327,0.9318237,3.2487793,1.9620209,4.1339722,3.0941925
		C435.7929077,195.5491638,436.2338867,196.8877563,436.2338867,198.4440155z M435.5450439,215.0589447
		c-0.9656982,0.3679352-2.3015747,0.1270599-4.0140991-0.7258148l-6.0613403-3.0187073v-9.8069611l6.5152588,3.244751
		c3.3348389,1.7315826,5.0054932,4.2324066,5.0054932,7.4936218
		C436.9903564,213.7538605,436.5075073,214.6926422,435.5450439,215.0589447z"/>
</g>
<linearGradient id="SVGID_10_" gradientUnits="userSpaceOnUse" x1="0" y1="150.7367096" x2="337.8019409" y2="150.7367096" gradientTransform="matrix(1 0 0 -1 0 700.1102295)">
	<stop  offset="0" style="stop-color:#FFFFFF"/>
	<stop  offset="1" style="stop-color:#28AAFF"/>
</linearGradient>
<rect y="498.7470398" style="opacity:0.4;fill:url(#SVGID_10_);enable-background:new    ;" width="337.8019409" height="101.2529602"/>
<linearGradient id="SVGID_11_" gradientUnits="userSpaceOnUse" x1="337.9845581" y1="200.667984" x2="437.9202881" y2="200.667984" gradientTransform="matrix(1 0 0 -1 0 700.1102295)">
	<stop  offset="0" style="stop-color:#FFFFFF"/>
	<stop  offset="1" style="stop-color:#28AAFF"/>
</linearGradient>
<rect x="337.9845581" y="448.8157654" style="opacity:0.4;fill:url(#SVGID_11_);enable-background:new    ;" width="99.9356995" height="101.2529602"/>
<g>
	<g>
		
			<linearGradient id="SVGID_12_" gradientUnits="userSpaceOnUse" x1="90.622467" y1="290.4551392" x2="528.8776245" y2="290.4551392" gradientTransform="matrix(1 0 0 -1 0 700.1102295)">
			<stop  offset="0" style="stop-color:#ABDEFF"/>
			<stop  offset="1" style="stop-color:#28AAFF"/>
		</linearGradient>
		<polygon style="fill:url(#SVGID_12_);" points="233.4421539,376.1705322 437.9202881,478.7883606 509.2016602,443.1396484 
			304.7235107,340.5218201 		"/>
	</g>
	
		<linearGradient id="SVGID_13_" gradientUnits="userSpaceOnUse" x1="229.0214386" y1="236.9906006" x2="644.3994141" y2="236.9906006" gradientTransform="matrix(1 0 0 -1 0 700.1102295)">
		<stop  offset="0" style="stop-color:#28AAFF"/>
		<stop  offset="1" style="stop-color:#0983E2"/>
	</linearGradient>
	<polygon style="fill:url(#SVGID_13_);" points="233.4421539,447.4518738 437.9202881,550.0687256 437.9202881,478.7883606 
		233.4421539,376.1705322 	"/>
	
		<linearGradient id="SVGID_14_" gradientUnits="userSpaceOnUse" x1="473.5609436" y1="163.1329956" x2="473.5609436" y2="338.5627747" gradientTransform="matrix(1 0 0 -1 0 700.1102295)">
		<stop  offset="0" style="stop-color:#28AAFF"/>
		<stop  offset="1" style="stop-color:#ABDEFF"/>
	</linearGradient>
	<polygon style="fill:url(#SVGID_14_);" points="437.9202881,550.0687256 509.2016602,514.4210205 509.2016602,443.1396484 
		437.9202881,478.7883606 	"/>
</g>
<g>
	<g>
		
			<linearGradient id="SVGID_15_" gradientUnits="userSpaceOnUse" x1="90.3455811" y1="391.7080994" x2="528.600769" y2="391.7080994" gradientTransform="matrix(1 0 0 -1 0 700.1102295)">
			<stop  offset="0" style="stop-color:#ABDEFF"/>
			<stop  offset="1" style="stop-color:#28AAFF"/>
		</linearGradient>
		<polygon style="fill:url(#SVGID_15_);" points="233.1652985,274.9175415 437.6434326,377.5354004 508.9248047,341.8866882 
			304.4466553,239.2688446 		"/>
	</g>
	
		<linearGradient id="SVGID_16_" gradientUnits="userSpaceOnUse" x1="228.7445526" y1="338.2435608" x2="644.1225586" y2="338.2435608" gradientTransform="matrix(1 0 0 -1 0 700.1102295)">
		<stop  offset="0" style="stop-color:#28AAFF"/>
		<stop  offset="1" style="stop-color:#0983E2"/>
	</linearGradient>
	<polygon style="fill:url(#SVGID_16_);" points="233.1652985,346.1989136 437.6434326,448.8157654 437.6434326,377.5354004 
		233.1652985,274.9175415 	"/>
	
		<linearGradient id="SVGID_17_" gradientUnits="userSpaceOnUse" x1="473.2840881" y1="264.3859558" x2="473.2840881" y2="439.8157349" gradientTransform="matrix(1 0 0 -1 0 700.1102295)">
		<stop  offset="0" style="stop-color:#28AAFF"/>
		<stop  offset="1" style="stop-color:#ABDEFF"/>
	</linearGradient>
	<polygon style="fill:url(#SVGID_17_);" points="437.6434326,448.8157654 508.9248047,413.1680603 508.9248047,341.8866882 
		437.6434326,377.5354004 	"/>
</g>
<g>
	<g>
		
			<linearGradient id="SVGID_18_" gradientUnits="userSpaceOnUse" x1="331.0973511" y1="411.7396545" x2="331.0973511" y2="485.9578247" gradientTransform="matrix(1 0 0 -1 0 700.1102295)">
			<stop  offset="0" style="stop-color:#FFE075"/>
			<stop  offset="1" style="stop-color:#FFF2C7"/>
		</linearGradient>
		<path style="fill:url(#SVGID_18_);" d="M331.0975952,218.0788879c-18.326416-9.1652222-33.1828003-1.7386932-33.1828003,16.587326
			c0,18.3265228,14.8563843,40.6124725,33.1828003,49.7779388c18.3259888,9.1652222,33.182373,1.7384338,33.182373-16.5880737
			C364.2799683,249.5300446,349.423584,227.2441101,331.0975952,218.0788879z"/>
	</g>
	<path style="fill:#616385;" d="M340.9140015,259.6121216c-0.927063-1.731781-2.2404175-3.2540283-3.9367676-4.5586853
		c1.4968262,0.1152496,2.6323242-0.2099152,3.4088745-0.9742737c0.7757568-0.7615356,1.1652832-1.8601532,1.1652832-3.3006439
		c0-2.8134766-0.9278564-5.3977356-2.7844238-7.7435608c-1.2819824-1.6203461-2.9779663-3.1008453-5.0698853-4.4469452v-5.2740631
		l-3.4507446-1.7185669v5.0610504l-3.4539795-1.7201691v-5.0610352l-3.4506836-1.7185669v5.0610352l-3.4547729-1.7205658v31.3822632
		l3.4547729,1.7205811v4.5465698l3.4506836,1.7185669v-4.5465698l3.4539795,1.7201538v4.5466003l3.4507446,1.7185364v-4.6820068
		c2.4005737,0.9109802,4.3270874,1.1273193,5.7716064,0.6377258c1.8919678-0.6333008,2.8391724-2.4292297,2.8391724-5.3737488
		C342.3078613,263.1036682,341.8442993,261.34552,340.9140015,259.6121216z M336.114502,248.3762817
		c0,1.4083405-0.4796143,2.2562714-1.4356079,2.5486298c-0.9560547,0.2923431-2.2822876,0.0177002-3.9818726-0.8287506
		l-5.3467407-2.6628265v-8.8166199l5.3040771,2.641571c1.8710327,0.9318237,3.2487183,1.9620209,4.1339722,3.0941925
		C335.6735229,245.4814301,336.114502,246.8200226,336.114502,248.3762817z M335.4256592,264.9912109
		c-0.9656982,0.3679199-2.3015747,0.1270752-4.0140381-0.7258301l-6.0613403-3.0186768v-9.8069763l6.5151978,3.244751
		c3.3348389,1.7315979,5.0054932,4.2323914,5.0054932,7.4936218
		C336.8709717,263.6861267,336.3881226,264.6249084,335.4256592,264.9912109z"/>
</g>
<g>
	<g>
		
			<linearGradient id="SVGID_19_" gradientUnits="userSpaceOnUse" x1="331.0973511" y1="330.6675415" x2="331.0973511" y2="404.8856812" gradientTransform="matrix(1 0 0 -1 0 700.1102295)">
			<stop  offset="0" style="stop-color:#FFE075"/>
			<stop  offset="1" style="stop-color:#FFF2C7"/>
		</linearGradient>
		<path style="fill:url(#SVGID_19_);" d="M331.0975952,299.1510315
			c-18.326416-9.1652222-33.1828003-1.7387085-33.1828003,16.5873108c0,18.3265381,14.8563843,40.6124573,33.1828003,49.7779236
			c18.3259888,9.1652222,33.182373,1.7384644,33.182373-16.5880432
			C364.2799683,330.6021729,349.423584,308.3162231,331.0975952,299.1510315z"/>
	</g>
	<path style="fill:#616385;" d="M340.9140015,340.6842651c-0.927063-1.731781-2.2404175-3.2540283-3.9367676-4.5586853
		c1.4968262,0.1152344,2.6323242-0.2099304,3.4088745-0.9742737c0.7757568-0.7615356,1.1652832-1.8601685,1.1652832-3.3006592
		c0-2.8134766-0.9278564-5.3977356-2.7844238-7.7435608c-1.2819824-1.6203308-2.9779663-3.1008301-5.0698853-4.4469299v-5.2740479
		l-3.4507446-1.7185669v5.0610352l-3.4539795-1.7201843v-5.0610352l-3.4506836-1.7185669v5.0610352l-3.4547729-1.7205505v31.3822632
		l3.4547729,1.7205811v4.5465698l3.4506836,1.7185669v-4.5465698l3.4539795,1.7201538v4.5466003l3.4507446,1.7185364v-4.6820068
		c2.4005737,0.9109802,4.3270874,1.1272888,5.7716064,0.6377258c1.8919678-0.6333008,2.8391724-2.4292603,2.8391724-5.3737488
		C342.3078613,344.1758118,341.8442993,342.4176331,340.9140015,340.6842651z M336.114502,329.4484253
		c0,1.4083252-0.4796143,2.2562561-1.4356079,2.5486145c-0.9560547,0.2923584-2.2822876,0.0177002-3.9818726-0.8287354
		l-5.3467407-2.6628418v-8.8166199l5.3040771,2.641571c1.8710327,0.9318237,3.2487183,1.9620361,4.1339722,3.0942078
		C335.6735229,326.5535583,336.114502,327.8921509,336.114502,329.4484253z M335.4256592,346.0633545
		c-0.9656982,0.3679199-2.3015747,0.1270447-4.0140381-0.7258301l-6.0613403-3.0187073v-9.8069458l6.5151978,3.244751
		c3.3348389,1.7315979,5.0054932,4.2323914,5.0054932,7.4936218
		C336.8709717,344.7582703,336.3881226,345.697052,335.4256592,346.0633545z"/>
</g>
<g>
	<g>
		
			<linearGradient id="SVGID_20_" gradientUnits="userSpaceOnUse" x1="-9.4958801" y1="240.52388" x2="428.7592468" y2="240.52388" gradientTransform="matrix(1 0 0 -1 0 700.1102295)">
			<stop  offset="0" style="stop-color:#ABDEFF"/>
			<stop  offset="1" style="stop-color:#28AAFF"/>
		</linearGradient>
		<polygon style="fill:url(#SVGID_20_);" points="133.323822,426.1017761 337.8019409,528.7196045 409.083313,493.0709229 
			204.6051788,390.453064 		"/>
	</g>
	
		<linearGradient id="SVGID_21_" gradientUnits="userSpaceOnUse" x1="128.9030914" y1="187.0593414" x2="544.2810669" y2="187.0593414" gradientTransform="matrix(1 0 0 -1 0 700.1102295)">
		<stop  offset="0" style="stop-color:#28AAFF"/>
		<stop  offset="1" style="stop-color:#0983E2"/>
	</linearGradient>
	<polygon style="fill:url(#SVGID_21_);" points="133.323822,497.3831482 337.8019409,600 337.8019409,528.7196045 
		133.323822,426.1017761 	"/>
	
		<linearGradient id="SVGID_22_" gradientUnits="userSpaceOnUse" x1="373.442627" y1="113.2017212" x2="373.442627" y2="288.6315002" gradientTransform="matrix(1 0 0 -1 0 700.1102295)">
		<stop  offset="0" style="stop-color:#28AAFF"/>
		<stop  offset="1" style="stop-color:#ABDEFF"/>
	</linearGradient>
	<polygon style="fill:url(#SVGID_22_);" points="337.8019409,600 409.083313,564.3522949 409.083313,493.0709229 
		337.8019409,528.7196045 	"/>
</g>
<g>
	<g>
		
			<linearGradient id="SVGID_23_" gradientUnits="userSpaceOnUse" x1="-9.4958801" y1="341.7768555" x2="428.7592468" y2="341.7768555" gradientTransform="matrix(1 0 0 -1 0 700.1102295)">
			<stop  offset="0" style="stop-color:#ABDEFF"/>
			<stop  offset="1" style="stop-color:#28AAFF"/>
		</linearGradient>
		<polygon style="fill:url(#SVGID_23_);" points="133.323822,324.8488159 337.8019409,427.4666748 409.083313,391.8179626 
			204.6051788,289.2001038 		"/>
	</g>
	
		<linearGradient id="SVGID_24_" gradientUnits="userSpaceOnUse" x1="128.9030914" y1="288.3123169" x2="544.2810669" y2="288.3123169" gradientTransform="matrix(1 0 0 -1 0 700.1102295)">
		<stop  offset="0" style="stop-color:#28AAFF"/>
		<stop  offset="1" style="stop-color:#0983E2"/>
	</linearGradient>
	<polygon style="fill:url(#SVGID_24_);" points="133.323822,396.130188 337.8019409,498.7470398 337.8019409,427.4666748 
		133.323822,324.8488159 	"/>
	
		<linearGradient id="SVGID_25_" gradientUnits="userSpaceOnUse" x1="373.442627" y1="214.4547119" x2="373.442627" y2="389.884491" gradientTransform="matrix(1 0 0 -1 0 700.1102295)">
		<stop  offset="0" style="stop-color:#28AAFF"/>
		<stop  offset="1" style="stop-color:#ABDEFF"/>
	</linearGradient>
	<polygon style="fill:url(#SVGID_25_);" points="337.8019409,498.7470398 409.083313,463.0993347 409.083313,391.8179626 
		337.8019409,427.4666748 	"/>
</g>
</svg>
