<svg xmlns="http://www.w3.org/2000/svg" xmlns:xlink="http://www.w3.org/1999/xlink" id="step_03" x="0" y="0" version="1.1" viewBox="0 0 700 700" xml:space="preserve" style="enable-background:new 0 0 700 700"><linearGradient id="SVGID_1_" x1="438.104" x2="538.04" y1="250.6" y2="250.6" gradientTransform="matrix(1 0 0 -1 0 700.1102295)" gradientUnits="userSpaceOnUse"><stop offset="0" style="stop-color:#fff"/><stop offset="1" style="stop-color:#28aaff"/></linearGradient><rect style="opacity:.4;fill:url(#SVGID_1_);enable-background:new" width="99.936" height="101.253" x="438.104" y="398.883"/><g><g><linearGradient id="SVGID_2_" x1="190.742" x2="628.997" y1="340.387" y2="340.387" gradientTransform="matrix(1 0 0 -1 0 700.1102295)" gradientUnits="userSpaceOnUse"><stop offset="0" style="stop-color:#abdeff"/><stop offset="1" style="stop-color:#28aaff"/></linearGradient><polygon style="fill:url(#SVGID_2_)" points="333.562 326.238 538.04 428.856 609.321 393.207 404.843 290.59"/></g><linearGradient id="SVGID_3_" x1="329.141" x2="744.519" y1="286.923" y2="286.923" gradientTransform="matrix(1 0 0 -1 0 700.1102295)" gradientUnits="userSpaceOnUse"><stop offset="0" style="stop-color:#28aaff"/><stop offset="1" style="stop-color:#0983e2"/></linearGradient><polygon style="fill:url(#SVGID_3_)" points="333.562 397.52 538.04 500.136 538.04 428.856 333.562 326.238"/><linearGradient id="SVGID_4_" x1="573.68" x2="573.68" y1="213.065" y2="388.495" gradientTransform="matrix(1 0 0 -1 0 700.1102295)" gradientUnits="userSpaceOnUse"><stop offset="0" style="stop-color:#28aaff"/><stop offset="1" style="stop-color:#abdeff"/></linearGradient><polygon style="fill:url(#SVGID_4_)" points="538.04 500.136 609.321 464.489 609.321 393.207 538.04 428.856"/></g><g><g><linearGradient id="SVGID_5_" x1="190.465" x2="628.72" y1="441.64" y2="441.64" gradientTransform="matrix(1 0 0 -1 0 700.1102295)" gradientUnits="userSpaceOnUse"><stop offset="0" style="stop-color:#abdeff"/><stop offset="1" style="stop-color:#28aaff"/></linearGradient><polygon style="fill:url(#SVGID_5_)" points="333.285 224.985 537.763 327.603 609.044 291.954 404.566 189.337"/></g><linearGradient id="SVGID_6_" x1="328.864" x2="744.242" y1="388.176" y2="388.176" gradientTransform="matrix(1 0 0 -1 0 700.1102295)" gradientUnits="userSpaceOnUse"><stop offset="0" style="stop-color:#28aaff"/><stop offset="1" style="stop-color:#0983e2"/></linearGradient><polygon style="fill:url(#SVGID_6_)" points="333.285 296.267 537.763 398.883 537.763 327.603 333.285 224.985"/><linearGradient id="SVGID_7_" x1="573.403" x2="573.403" y1="314.318" y2="489.748" gradientTransform="matrix(1 0 0 -1 0 700.1102295)" gradientUnits="userSpaceOnUse"><stop offset="0" style="stop-color:#28aaff"/><stop offset="1" style="stop-color:#abdeff"/></linearGradient><polygon style="fill:url(#SVGID_7_)" points="537.763 398.883 609.044 363.236 609.044 291.954 537.763 327.603"/></g><g><g><linearGradient id="SVGID_8_" x1="431.217" x2="431.217" y1="380.6" y2="454.818" gradientTransform="matrix(1 0 0 -1 0 700.1102295)" gradientUnits="userSpaceOnUse"><stop offset="0" style="stop-color:#ffe075"/><stop offset="1" style="stop-color:#fff2c7"/></linearGradient><path style="fill:url(#SVGID_8_)" d="M431.21698,249.21875c-18.3264771-9.1652222-33.1828613-1.7386932-33.1828613,16.5873413 c0,18.3265381,14.8563843,40.6124268,33.1828613,49.7778931c18.3259277,9.1652527,33.182312,1.7384644,33.182312-16.5880432 C464.399292,280.6699219,449.5429077,258.3839722,431.21698,249.21875z"/></g><path style="fill:#616385" d="M441.0333862,290.7519836c-0.927063-1.731781-2.2404175-3.2540283-3.9368286-4.5586853 c1.4968262,0.1152344,2.6323242-0.2098999,3.4089355-0.9742432c0.7757568-0.7615662,1.1652222-1.8601685,1.1652222-3.3006592 c0-2.8134766-0.9278564-5.3977661-2.7843628-7.7435913c-1.2819824-1.6203308-2.9779663-3.1008301-5.0699463-4.4469299v-5.2740479 l-3.4507446-1.7185669v5.0610352l-3.4539185-1.7201843v-5.0610352l-3.4507446-1.7185669v5.0610352l-3.4547729-1.7205505v31.3822937 l3.4547729,1.7205811v4.5465698l3.4507446,1.7185669v-4.5465698l3.4539185,1.7201538v4.5465698l3.4507446,1.7185669v-4.6820068 c2.4005737,0.9109497,4.3271484,1.1272583,5.7716675,0.6376953c1.8919678-0.6333008,2.8391113-2.4292297,2.8391113-5.3737183 C442.4271851,294.2435303,441.9636841,292.4853821,441.0333862,290.7519836z M436.2338867,279.5161438 c0,1.4083557-0.4796143,2.2562866-1.4356689,2.5486145c-0.9560547,0.2923584-2.2822266,0.0177002-3.9818726-0.8287354 l-5.3467407-2.6628113v-8.8166199l5.3040771,2.641571c1.8710327,0.9318237,3.2487793,1.9620056,4.1339722,3.0941772 C435.7929077,276.6213074,436.2338867,277.9598999,436.2338867,279.5161438z M435.5450439,296.1311035 c-0.9656982,0.3679199-2.3015747,0.1270142-4.0140991-0.7258301l-6.0613403-3.0187073v-9.8069763l6.5152588,3.244751 c3.3348389,1.7315979,5.0054932,4.2324219,5.0054932,7.4936523 C436.9903564,294.8259888,436.5075073,295.7647705,435.5450439,296.1311035z"/></g><g><g><linearGradient id="SVGID_9_" x1="431.217" x2="431.217" y1="461.672" y2="535.89" gradientTransform="matrix(1 0 0 -1 0 700.1102295)" gradientUnits="userSpaceOnUse"><stop offset="0" style="stop-color:#ffe075"/><stop offset="1" style="stop-color:#fff2c7"/></linearGradient><path style="fill:url(#SVGID_9_)" d="M431.21698,168.1466217c-18.3264771-9.1652222-33.1828613-1.7386932-33.1828613,16.587326 c0,18.3265228,14.8563843,40.6124573,33.1828613,49.7779236c18.3259277,9.1652222,33.182312,1.7384491,33.182312-16.5880737 C464.399292,199.5977631,449.5429077,177.3118286,431.21698,168.1466217z"/></g><path style="fill:#616385" d="M441.0333862,209.6798553c-0.927063-1.7317963-2.2404175-3.2540283-3.9368286-4.5586853 c1.4968262,0.1152344,2.6323242-0.2099152,3.4089355-0.9742737c0.7757568-0.7615356,1.1652222-1.8601532,1.1652222-3.3006439 c0-2.8134766-0.9278564-5.3977509-2.7843628-7.7435608c-1.2819824-1.6203613-2.9779663-3.1008453-5.0699463-4.4469452v-5.2740631 l-3.4507446-1.7185669v5.0610352l-3.4539185-1.7201538v-5.0610352l-3.4507446-1.7185669v5.0610352l-3.4547729-1.7205811v31.3822937 l3.4547729,1.7205658v4.5465851l3.4507446,1.7185516v-4.5465698l3.4539185,1.7201691v4.5465698l3.4507446,1.7185669v-4.6820221 c2.4005737,0.9109802,4.3271484,1.1273041,5.7716675,0.6377106c1.8919678-0.6332855,2.8391113-2.4292297,2.8391113-5.3737335 C442.4271851,213.171402,441.9636841,211.4132385,441.0333862,209.6798553z M436.2338867,198.4440155 c0,1.4083405-0.4796143,2.2562714-1.4356689,2.5486298c-0.9560547,0.2923431-2.2822266,0.0177002-3.9818726-0.8287659 l-5.3467407-2.6628113v-8.8166199l5.3040771,2.641571c1.8710327,0.9318237,3.2487793,1.9620209,4.1339722,3.0941925 C435.7929077,195.5491638,436.2338867,196.8877563,436.2338867,198.4440155z M435.5450439,215.0589447 c-0.9656982,0.3679352-2.3015747,0.1270599-4.0140991-0.7258148l-6.0613403-3.0187073v-9.8069611l6.5152588,3.244751 c3.3348389,1.7315826,5.0054932,4.2324066,5.0054932,7.4936218 C436.9903564,213.7538605,436.5075073,214.6926422,435.5450439,215.0589447z"/></g><linearGradient id="SVGID_10_" x1="0" x2="337.802" y1="150.737" y2="150.737" gradientTransform="matrix(1 0 0 -1 0 700.1102295)" gradientUnits="userSpaceOnUse"><stop offset="0" style="stop-color:#fff"/><stop offset="1" style="stop-color:#28aaff"/></linearGradient><rect style="opacity:.4;fill:url(#SVGID_10_);enable-background:new" width="337.802" height="101.253" y="498.747"/><linearGradient id="SVGID_11_" x1="337.985" x2="437.92" y1="200.668" y2="200.668" gradientTransform="matrix(1 0 0 -1 0 700.1102295)" gradientUnits="userSpaceOnUse"><stop offset="0" style="stop-color:#fff"/><stop offset="1" style="stop-color:#28aaff"/></linearGradient><rect style="opacity:.4;fill:url(#SVGID_11_);enable-background:new" width="99.936" height="101.253" x="337.985" y="448.816"/><g><g><linearGradient id="SVGID_12_" x1="90.622" x2="528.878" y1="290.455" y2="290.455" gradientTransform="matrix(1 0 0 -1 0 700.1102295)" gradientUnits="userSpaceOnUse"><stop offset="0" style="stop-color:#abdeff"/><stop offset="1" style="stop-color:#28aaff"/></linearGradient><polygon style="fill:url(#SVGID_12_)" points="233.442 376.171 437.92 478.788 509.202 443.14 304.724 340.522"/></g><linearGradient id="SVGID_13_" x1="229.021" x2="644.399" y1="236.991" y2="236.991" gradientTransform="matrix(1 0 0 -1 0 700.1102295)" gradientUnits="userSpaceOnUse"><stop offset="0" style="stop-color:#28aaff"/><stop offset="1" style="stop-color:#0983e2"/></linearGradient><polygon style="fill:url(#SVGID_13_)" points="233.442 447.452 437.92 550.069 437.92 478.788 233.442 376.171"/><linearGradient id="SVGID_14_" x1="473.561" x2="473.561" y1="163.133" y2="338.563" gradientTransform="matrix(1 0 0 -1 0 700.1102295)" gradientUnits="userSpaceOnUse"><stop offset="0" style="stop-color:#28aaff"/><stop offset="1" style="stop-color:#abdeff"/></linearGradient><polygon style="fill:url(#SVGID_14_)" points="437.92 550.069 509.202 514.421 509.202 443.14 437.92 478.788"/></g><g><g><linearGradient id="SVGID_15_" x1="90.346" x2="528.601" y1="391.708" y2="391.708" gradientTransform="matrix(1 0 0 -1 0 700.1102295)" gradientUnits="userSpaceOnUse"><stop offset="0" style="stop-color:#abdeff"/><stop offset="1" style="stop-color:#28aaff"/></linearGradient><polygon style="fill:url(#SVGID_15_)" points="233.165 274.918 437.643 377.535 508.925 341.887 304.447 239.269"/></g><linearGradient id="SVGID_16_" x1="228.745" x2="644.123" y1="338.244" y2="338.244" gradientTransform="matrix(1 0 0 -1 0 700.1102295)" gradientUnits="userSpaceOnUse"><stop offset="0" style="stop-color:#28aaff"/><stop offset="1" style="stop-color:#0983e2"/></linearGradient><polygon style="fill:url(#SVGID_16_)" points="233.165 346.199 437.643 448.816 437.643 377.535 233.165 274.918"/><linearGradient id="SVGID_17_" x1="473.284" x2="473.284" y1="264.386" y2="439.816" gradientTransform="matrix(1 0 0 -1 0 700.1102295)" gradientUnits="userSpaceOnUse"><stop offset="0" style="stop-color:#28aaff"/><stop offset="1" style="stop-color:#abdeff"/></linearGradient><polygon style="fill:url(#SVGID_17_)" points="437.643 448.816 508.925 413.168 508.925 341.887 437.643 377.535"/></g><g><g><linearGradient id="SVGID_18_" x1="331.097" x2="331.097" y1="411.74" y2="485.958" gradientTransform="matrix(1 0 0 -1 0 700.1102295)" gradientUnits="userSpaceOnUse"><stop offset="0" style="stop-color:#ffe075"/><stop offset="1" style="stop-color:#fff2c7"/></linearGradient><path style="fill:url(#SVGID_18_)" d="M331.0975952,218.0788879c-18.326416-9.1652222-33.1828003-1.7386932-33.1828003,16.587326 c0,18.3265228,14.8563843,40.6124725,33.1828003,49.7779388c18.3259888,9.1652222,33.182373,1.7384338,33.182373-16.5880737 C364.2799683,249.5300446,349.423584,227.2441101,331.0975952,218.0788879z"/></g><path style="fill:#616385" d="M340.9140015,259.6121216c-0.927063-1.731781-2.2404175-3.2540283-3.9367676-4.5586853 c1.4968262,0.1152496,2.6323242-0.2099152,3.4088745-0.9742737c0.7757568-0.7615356,1.1652832-1.8601532,1.1652832-3.3006439 c0-2.8134766-0.9278564-5.3977356-2.7844238-7.7435608c-1.2819824-1.6203461-2.9779663-3.1008453-5.0698853-4.4469452v-5.2740631 l-3.4507446-1.7185669v5.0610504l-3.4539795-1.7201691v-5.0610352l-3.4506836-1.7185669v5.0610352l-3.4547729-1.7205658v31.3822632 l3.4547729,1.7205811v4.5465698l3.4506836,1.7185669v-4.5465698l3.4539795,1.7201538v4.5466003l3.4507446,1.7185364v-4.6820068 c2.4005737,0.9109802,4.3270874,1.1273193,5.7716064,0.6377258c1.8919678-0.6333008,2.8391724-2.4292297,2.8391724-5.3737488 C342.3078613,263.1036682,341.8442993,261.34552,340.9140015,259.6121216z M336.114502,248.3762817 c0,1.4083405-0.4796143,2.2562714-1.4356079,2.5486298c-0.9560547,0.2923431-2.2822876,0.0177002-3.9818726-0.8287506 l-5.3467407-2.6628265v-8.8166199l5.3040771,2.641571c1.8710327,0.9318237,3.2487183,1.9620209,4.1339722,3.0941925 C335.6735229,245.4814301,336.114502,246.8200226,336.114502,248.3762817z M335.4256592,264.9912109 c-0.9656982,0.3679199-2.3015747,0.1270752-4.0140381-0.7258301l-6.0613403-3.0186768v-9.8069763l6.5151978,3.244751 c3.3348389,1.7315979,5.0054932,4.2323914,5.0054932,7.4936218 C336.8709717,263.6861267,336.3881226,264.6249084,335.4256592,264.9912109z"/></g><g><g><linearGradient id="SVGID_19_" x1="331.097" x2="331.097" y1="330.668" y2="404.886" gradientTransform="matrix(1 0 0 -1 0 700.1102295)" gradientUnits="userSpaceOnUse"><stop offset="0" style="stop-color:#ffe075"/><stop offset="1" style="stop-color:#fff2c7"/></linearGradient><path style="fill:url(#SVGID_19_)" d="M331.0975952,299.1510315 c-18.326416-9.1652222-33.1828003-1.7387085-33.1828003,16.5873108c0,18.3265381,14.8563843,40.6124573,33.1828003,49.7779236 c18.3259888,9.1652222,33.182373,1.7384644,33.182373-16.5880432 C364.2799683,330.6021729,349.423584,308.3162231,331.0975952,299.1510315z"/></g><path style="fill:#616385" d="M340.9140015,340.6842651c-0.927063-1.731781-2.2404175-3.2540283-3.9367676-4.5586853 c1.4968262,0.1152344,2.6323242-0.2099304,3.4088745-0.9742737c0.7757568-0.7615356,1.1652832-1.8601685,1.1652832-3.3006592 c0-2.8134766-0.9278564-5.3977356-2.7844238-7.7435608c-1.2819824-1.6203308-2.9779663-3.1008301-5.0698853-4.4469299v-5.2740479 l-3.4507446-1.7185669v5.0610352l-3.4539795-1.7201843v-5.0610352l-3.4506836-1.7185669v5.0610352l-3.4547729-1.7205505v31.3822632 l3.4547729,1.7205811v4.5465698l3.4506836,1.7185669v-4.5465698l3.4539795,1.7201538v4.5466003l3.4507446,1.7185364v-4.6820068 c2.4005737,0.9109802,4.3270874,1.1272888,5.7716064,0.6377258c1.8919678-0.6333008,2.8391724-2.4292603,2.8391724-5.3737488 C342.3078613,344.1758118,341.8442993,342.4176331,340.9140015,340.6842651z M336.114502,329.4484253 c0,1.4083252-0.4796143,2.2562561-1.4356079,2.5486145c-0.9560547,0.2923584-2.2822876,0.0177002-3.9818726-0.8287354 l-5.3467407-2.6628418v-8.8166199l5.3040771,2.641571c1.8710327,0.9318237,3.2487183,1.9620361,4.1339722,3.0942078 C335.6735229,326.5535583,336.114502,327.8921509,336.114502,329.4484253z M335.4256592,346.0633545 c-0.9656982,0.3679199-2.3015747,0.1270447-4.0140381-0.7258301l-6.0613403-3.0187073v-9.8069458l6.5151978,3.244751 c3.3348389,1.7315979,5.0054932,4.2323914,5.0054932,7.4936218 C336.8709717,344.7582703,336.3881226,345.697052,335.4256592,346.0633545z"/></g><g><g><linearGradient id="SVGID_20_" x1="-9.496" x2="428.759" y1="240.524" y2="240.524" gradientTransform="matrix(1 0 0 -1 0 700.1102295)" gradientUnits="userSpaceOnUse"><stop offset="0" style="stop-color:#abdeff"/><stop offset="1" style="stop-color:#28aaff"/></linearGradient><polygon style="fill:url(#SVGID_20_)" points="133.324 426.102 337.802 528.72 409.083 493.071 204.605 390.453"/></g><linearGradient id="SVGID_21_" x1="128.903" x2="544.281" y1="187.059" y2="187.059" gradientTransform="matrix(1 0 0 -1 0 700.1102295)" gradientUnits="userSpaceOnUse"><stop offset="0" style="stop-color:#28aaff"/><stop offset="1" style="stop-color:#0983e2"/></linearGradient><polygon style="fill:url(#SVGID_21_)" points="133.324 497.383 337.802 600 337.802 528.72 133.324 426.102"/><linearGradient id="SVGID_22_" x1="373.443" x2="373.443" y1="113.202" y2="288.632" gradientTransform="matrix(1 0 0 -1 0 700.1102295)" gradientUnits="userSpaceOnUse"><stop offset="0" style="stop-color:#28aaff"/><stop offset="1" style="stop-color:#abdeff"/></linearGradient><polygon style="fill:url(#SVGID_22_)" points="337.802 600 409.083 564.352 409.083 493.071 337.802 528.72"/></g><g><g><linearGradient id="SVGID_23_" x1="-9.496" x2="428.759" y1="341.777" y2="341.777" gradientTransform="matrix(1 0 0 -1 0 700.1102295)" gradientUnits="userSpaceOnUse"><stop offset="0" style="stop-color:#abdeff"/><stop offset="1" style="stop-color:#28aaff"/></linearGradient><polygon style="fill:url(#SVGID_23_)" points="133.324 324.849 337.802 427.467 409.083 391.818 204.605 289.2"/></g><linearGradient id="SVGID_24_" x1="128.903" x2="544.281" y1="288.312" y2="288.312" gradientTransform="matrix(1 0 0 -1 0 700.1102295)" gradientUnits="userSpaceOnUse"><stop offset="0" style="stop-color:#28aaff"/><stop offset="1" style="stop-color:#0983e2"/></linearGradient><polygon style="fill:url(#SVGID_24_)" points="133.324 396.13 337.802 498.747 337.802 427.467 133.324 324.849"/><linearGradient id="SVGID_25_" x1="373.443" x2="373.443" y1="214.455" y2="389.884" gradientTransform="matrix(1 0 0 -1 0 700.1102295)" gradientUnits="userSpaceOnUse"><stop offset="0" style="stop-color:#28aaff"/><stop offset="1" style="stop-color:#abdeff"/></linearGradient><polygon style="fill:url(#SVGID_25_)" points="337.802 498.747 409.083 463.099 409.083 391.818 337.802 427.467"/></g></svg>